M48
;GenerationSoftware,Autodesk,EAGLE,9.6.2*%
;CreationDate,2025-05-19T16:14:13Z*%
FMAT,2
ICI,OFF
METRIC,TZ,000.000
T4C0.350
T3C0.400
T2C0.900
T1C1.000
%
G90
M71
T1
X65301Y3591
X37361Y3591
X32281Y3591
X34821Y3591
X39901Y3591
X42441Y3591
X44981Y3591
X47521Y3591
X50061Y3591
X52601Y3591
X55141Y3591
X57681Y3591
X60221Y3591
X62761Y3591
T2
X27940Y33020
X5080Y35560
X16510Y27940
X16510Y25400
X24130Y25400
X24130Y27940
X24130Y30480
X24130Y33020
X24130Y35560
X27940Y35560
X27940Y30480
X27940Y27940
X27940Y25400
X35560Y25400
X35560Y27940
X35560Y30480
X35560Y33020
X35560Y35560
X39370Y35560
X39370Y33020
X39370Y30480
X39370Y27940
X39370Y25400
X46990Y25400
X46990Y27940
X46990Y30480
X46990Y33020
X46990Y35560
X50800Y35560
X50800Y33020
X50800Y30480
X50800Y27940
X50800Y25400
X58420Y27940
X58420Y30480
X58420Y33020
X58420Y35560
X62230Y35560
X62230Y33020
X62230Y30480
X62230Y27940
X62230Y25400
X69850Y25400
X69850Y27940
X69850Y30480
X69850Y33020
X69850Y35560
X73660Y35560
X73660Y33020
X73660Y30480
X73660Y27940
X73660Y25400
X81280Y25400
X81280Y27940
X81280Y30480
X81280Y33020
X85090Y35560
X58420Y25400
X85090Y30480
X85090Y27940
X85090Y25400
X92710Y25400
X92710Y27940
X92710Y30480
X92710Y33020
X92710Y35560
X16510Y30480
X16510Y33020
X85090Y33020
X16510Y35560
X12700Y35560
X12700Y33020
X12700Y30480
X12700Y27940
X12700Y25400
X5080Y25400
X5080Y27940
X5080Y30480
X5080Y33020
X81280Y35560
T3
X60325Y30353
X83185Y30607
X83185Y35560
X27940Y50800
X12192Y50673
X35560Y44196
X25400Y44196
X19685Y44196
X19685Y41656
X17145Y41656
X17145Y44196
X14605Y44196
X14605Y41656
X12192Y53975
X25400Y41656
X30480Y44196
X30480Y41656
X30480Y39116
X35560Y41656
X40640Y44196
X40640Y41656
X45085Y21971
X49276Y20955
X49657Y17272
X52705Y15875
X45720Y44323
X45720Y41529
X46101Y38608
X50800Y44323
X50800Y42418
X50927Y40259
X63881Y29337
X71755Y22352
X74041Y22352
X76454Y22352
X76200Y18542
X78613Y15875
X55880Y44323
X56007Y41656
X61468Y40767
X65913Y38735
X33274Y51308
X36830Y52324
X39116Y51054
X41275Y53086
X43561Y51308
X45339Y53975
X47117Y52705
X48514Y51308
X49149Y54864
X51435Y53213
X53721Y51435
X12319Y23368
X12319Y21844
X12192Y38100
X12192Y39624
X3175Y26797
X3048Y29210
X3048Y31750
X3048Y34417
X94488Y34290
X18923Y58547
X94488Y31750
X94488Y29210
X94615Y26543
X18923Y60071
X18161Y22733
X21463Y21844
X36068Y22352
X40259Y22352
X40640Y18796
X43053Y15875
X28956Y21463
X34925Y16002
X54610Y22352
X58166Y22225
X58674Y16891
X64135Y22479
X67183Y20066
X81026Y21463
X84836Y21336
X87630Y15875
X84074Y11938
X75692Y11049
X68580Y11049
X29591Y29210
T4
X57912Y13970
X52070Y13970
X41910Y13970
X8128Y41910
X34290Y13970
X5588Y52451
X4572Y53594
X3429Y54737
X40640Y29210
X91440Y12700
X11557Y56388
X86360Y13970
X77470Y13970
X67564Y14986
M30