G04 EAGLE Gerber RS-274X export*
G75*
%MOMM*%
%FSLAX34Y34*%
%LPD*%
%INBottom Copper*%
%IPPOS*%
%AMOC8*
5,1,8,0,0,1.08239X$1,22.5*%
G01*
%ADD10C,1.500000*%
%ADD11P,1.632244X8X22.500000*%
%ADD12C,0.812800*%
%ADD13C,0.756400*%
%ADD14C,0.406400*%
%ADD15C,0.304800*%
%ADD16C,0.304800*%
%ADD17C,0.806400*%

G36*
X966798Y10164D02*
X966798Y10164D01*
X966817Y10162D01*
X966919Y10184D01*
X967021Y10200D01*
X967038Y10210D01*
X967058Y10214D01*
X967147Y10267D01*
X967238Y10316D01*
X967252Y10330D01*
X967269Y10340D01*
X967336Y10419D01*
X967408Y10494D01*
X967416Y10512D01*
X967429Y10527D01*
X967468Y10623D01*
X967511Y10717D01*
X967513Y10737D01*
X967521Y10755D01*
X967539Y10922D01*
X967539Y633478D01*
X967536Y633498D01*
X967538Y633517D01*
X967516Y633619D01*
X967500Y633721D01*
X967490Y633738D01*
X967486Y633758D01*
X967433Y633847D01*
X967384Y633938D01*
X967370Y633952D01*
X967360Y633969D01*
X967281Y634036D01*
X967206Y634108D01*
X967188Y634116D01*
X967173Y634129D01*
X967077Y634168D01*
X966983Y634211D01*
X966963Y634213D01*
X966945Y634221D01*
X966778Y634239D01*
X10922Y634239D01*
X10902Y634236D01*
X10883Y634238D01*
X10781Y634216D01*
X10679Y634200D01*
X10662Y634190D01*
X10642Y634186D01*
X10553Y634133D01*
X10462Y634084D01*
X10448Y634070D01*
X10431Y634060D01*
X10364Y633981D01*
X10292Y633906D01*
X10284Y633888D01*
X10271Y633873D01*
X10232Y633777D01*
X10189Y633683D01*
X10187Y633663D01*
X10179Y633645D01*
X10161Y633478D01*
X10161Y10922D01*
X10164Y10902D01*
X10162Y10883D01*
X10184Y10781D01*
X10200Y10679D01*
X10210Y10662D01*
X10214Y10642D01*
X10267Y10553D01*
X10316Y10462D01*
X10330Y10448D01*
X10340Y10431D01*
X10419Y10364D01*
X10494Y10292D01*
X10512Y10284D01*
X10527Y10271D01*
X10623Y10232D01*
X10717Y10189D01*
X10737Y10187D01*
X10755Y10179D01*
X10922Y10161D01*
X966778Y10161D01*
X966798Y10164D01*
G37*
%LPC*%
G36*
X318426Y25319D02*
X318426Y25319D01*
X312223Y31521D01*
X312223Y40293D01*
X318016Y46086D01*
X318069Y46160D01*
X318129Y46230D01*
X318141Y46260D01*
X318160Y46286D01*
X318187Y46373D01*
X318221Y46458D01*
X318225Y46499D01*
X318232Y46521D01*
X318231Y46553D01*
X318239Y46625D01*
X318239Y55979D01*
X318224Y56069D01*
X318217Y56160D01*
X318205Y56189D01*
X318199Y56221D01*
X318157Y56302D01*
X318121Y56386D01*
X318095Y56418D01*
X318084Y56439D01*
X318061Y56461D01*
X318016Y56517D01*
X290429Y84104D01*
X290355Y84157D01*
X290285Y84217D01*
X290255Y84229D01*
X290229Y84248D01*
X290142Y84275D01*
X290057Y84309D01*
X290016Y84313D01*
X289994Y84320D01*
X289962Y84319D01*
X289891Y84327D01*
X150506Y84327D01*
X61467Y173366D01*
X61467Y248361D01*
X61452Y248457D01*
X61442Y248554D01*
X61432Y248578D01*
X61428Y248604D01*
X61382Y248689D01*
X61342Y248779D01*
X61325Y248798D01*
X61312Y248821D01*
X61242Y248888D01*
X61176Y248960D01*
X61153Y248972D01*
X61134Y248990D01*
X61046Y249031D01*
X60960Y249078D01*
X60935Y249083D01*
X60911Y249094D01*
X60814Y249105D01*
X60718Y249122D01*
X60692Y249118D01*
X60667Y249121D01*
X60571Y249100D01*
X60475Y249086D01*
X60452Y249074D01*
X60426Y249069D01*
X60342Y249019D01*
X60256Y248975D01*
X60238Y248956D01*
X60215Y248943D01*
X60152Y248869D01*
X60084Y248799D01*
X60068Y248771D01*
X60055Y248756D01*
X60043Y248725D01*
X60003Y248652D01*
X59743Y248025D01*
X56775Y245057D01*
X52898Y243451D01*
X48702Y243451D01*
X44825Y245057D01*
X41857Y248025D01*
X40251Y251902D01*
X40251Y256098D01*
X41857Y259975D01*
X44825Y262943D01*
X48702Y264549D01*
X52898Y264549D01*
X56775Y262943D01*
X59743Y259975D01*
X60003Y259348D01*
X60054Y259265D01*
X60100Y259179D01*
X60119Y259161D01*
X60132Y259139D01*
X60207Y259077D01*
X60278Y259010D01*
X60302Y258999D01*
X60322Y258982D01*
X60413Y258947D01*
X60501Y258906D01*
X60527Y258903D01*
X60551Y258894D01*
X60649Y258890D01*
X60745Y258879D01*
X60771Y258884D01*
X60797Y258883D01*
X60891Y258910D01*
X60986Y258931D01*
X61008Y258945D01*
X61033Y258952D01*
X61113Y259007D01*
X61197Y259057D01*
X61214Y259077D01*
X61235Y259092D01*
X61294Y259170D01*
X61357Y259244D01*
X61367Y259269D01*
X61382Y259290D01*
X61412Y259382D01*
X61449Y259472D01*
X61452Y259505D01*
X61458Y259523D01*
X61458Y259556D01*
X61467Y259639D01*
X61467Y273761D01*
X61452Y273857D01*
X61442Y273954D01*
X61432Y273978D01*
X61428Y274004D01*
X61382Y274089D01*
X61342Y274179D01*
X61325Y274198D01*
X61312Y274221D01*
X61242Y274288D01*
X61176Y274360D01*
X61153Y274372D01*
X61134Y274390D01*
X61046Y274431D01*
X60960Y274478D01*
X60935Y274483D01*
X60911Y274494D01*
X60814Y274505D01*
X60718Y274522D01*
X60692Y274518D01*
X60667Y274521D01*
X60571Y274500D01*
X60475Y274486D01*
X60452Y274474D01*
X60426Y274469D01*
X60342Y274419D01*
X60256Y274375D01*
X60238Y274356D01*
X60215Y274343D01*
X60152Y274269D01*
X60084Y274199D01*
X60068Y274171D01*
X60055Y274156D01*
X60043Y274125D01*
X60003Y274052D01*
X59743Y273425D01*
X56775Y270457D01*
X52898Y268851D01*
X48702Y268851D01*
X44825Y270457D01*
X41857Y273425D01*
X40251Y277302D01*
X40251Y281498D01*
X41857Y285375D01*
X44825Y288343D01*
X48702Y289949D01*
X52898Y289949D01*
X56775Y288343D01*
X59743Y285375D01*
X60003Y284748D01*
X60054Y284665D01*
X60100Y284579D01*
X60119Y284561D01*
X60132Y284539D01*
X60207Y284477D01*
X60278Y284410D01*
X60302Y284399D01*
X60322Y284382D01*
X60413Y284347D01*
X60501Y284306D01*
X60527Y284303D01*
X60551Y284294D01*
X60649Y284290D01*
X60745Y284279D01*
X60771Y284284D01*
X60797Y284283D01*
X60891Y284310D01*
X60986Y284331D01*
X61008Y284345D01*
X61033Y284352D01*
X61113Y284407D01*
X61197Y284457D01*
X61214Y284477D01*
X61235Y284492D01*
X61294Y284570D01*
X61357Y284644D01*
X61367Y284669D01*
X61382Y284690D01*
X61412Y284782D01*
X61449Y284872D01*
X61452Y284905D01*
X61458Y284923D01*
X61458Y284956D01*
X61467Y285039D01*
X61467Y299161D01*
X61452Y299257D01*
X61442Y299354D01*
X61432Y299378D01*
X61428Y299404D01*
X61382Y299489D01*
X61342Y299579D01*
X61325Y299598D01*
X61312Y299621D01*
X61242Y299688D01*
X61176Y299760D01*
X61153Y299772D01*
X61134Y299790D01*
X61046Y299831D01*
X60960Y299878D01*
X60935Y299883D01*
X60911Y299894D01*
X60814Y299905D01*
X60718Y299922D01*
X60692Y299918D01*
X60667Y299921D01*
X60571Y299900D01*
X60475Y299886D01*
X60452Y299874D01*
X60426Y299869D01*
X60342Y299819D01*
X60256Y299775D01*
X60238Y299756D01*
X60215Y299743D01*
X60152Y299669D01*
X60084Y299599D01*
X60068Y299571D01*
X60055Y299556D01*
X60043Y299525D01*
X60003Y299452D01*
X59743Y298825D01*
X56775Y295857D01*
X52898Y294251D01*
X48702Y294251D01*
X44825Y295857D01*
X41857Y298825D01*
X40251Y302702D01*
X40251Y306898D01*
X41857Y310775D01*
X44825Y313743D01*
X48702Y315349D01*
X52898Y315349D01*
X56775Y313743D01*
X59743Y310775D01*
X60003Y310148D01*
X60054Y310065D01*
X60100Y309979D01*
X60119Y309961D01*
X60132Y309939D01*
X60207Y309877D01*
X60278Y309810D01*
X60302Y309799D01*
X60322Y309782D01*
X60413Y309747D01*
X60501Y309706D01*
X60527Y309703D01*
X60551Y309694D01*
X60649Y309690D01*
X60745Y309679D01*
X60771Y309684D01*
X60797Y309683D01*
X60891Y309710D01*
X60986Y309731D01*
X61008Y309745D01*
X61033Y309752D01*
X61113Y309807D01*
X61197Y309857D01*
X61214Y309877D01*
X61235Y309892D01*
X61294Y309970D01*
X61357Y310044D01*
X61367Y310069D01*
X61382Y310090D01*
X61412Y310182D01*
X61449Y310272D01*
X61452Y310305D01*
X61458Y310323D01*
X61458Y310356D01*
X61467Y310439D01*
X61467Y324561D01*
X61464Y324579D01*
X61466Y324596D01*
X61450Y324669D01*
X61442Y324754D01*
X61432Y324778D01*
X61428Y324804D01*
X61417Y324824D01*
X61414Y324837D01*
X61381Y324892D01*
X61342Y324979D01*
X61325Y324998D01*
X61312Y325021D01*
X61293Y325040D01*
X61288Y325048D01*
X61251Y325080D01*
X61242Y325088D01*
X61176Y325160D01*
X61153Y325172D01*
X61134Y325190D01*
X61106Y325203D01*
X61101Y325208D01*
X61068Y325221D01*
X61046Y325231D01*
X60960Y325278D01*
X60935Y325283D01*
X60911Y325294D01*
X60878Y325298D01*
X60873Y325300D01*
X60793Y325309D01*
X60718Y325322D01*
X60692Y325318D01*
X60667Y325321D01*
X60572Y325300D01*
X60475Y325286D01*
X60452Y325274D01*
X60426Y325269D01*
X60343Y325219D01*
X60256Y325175D01*
X60245Y325164D01*
X60244Y325163D01*
X60237Y325156D01*
X60215Y325143D01*
X60152Y325069D01*
X60084Y324999D01*
X60077Y324987D01*
X60075Y324985D01*
X60070Y324974D01*
X60068Y324971D01*
X60055Y324956D01*
X60043Y324925D01*
X60003Y324852D01*
X59743Y324225D01*
X56775Y321257D01*
X52898Y319651D01*
X48702Y319651D01*
X44825Y321257D01*
X41857Y324225D01*
X40251Y328102D01*
X40251Y332298D01*
X41857Y336175D01*
X44825Y339143D01*
X48702Y340749D01*
X52898Y340749D01*
X56775Y339143D01*
X59743Y336175D01*
X60003Y335548D01*
X60054Y335465D01*
X60100Y335379D01*
X60119Y335361D01*
X60132Y335339D01*
X60207Y335277D01*
X60278Y335210D01*
X60302Y335199D01*
X60322Y335182D01*
X60413Y335147D01*
X60501Y335106D01*
X60527Y335103D01*
X60551Y335094D01*
X60649Y335090D01*
X60745Y335079D01*
X60771Y335084D01*
X60797Y335083D01*
X60891Y335110D01*
X60986Y335131D01*
X61008Y335145D01*
X61033Y335152D01*
X61113Y335207D01*
X61197Y335257D01*
X61214Y335277D01*
X61235Y335292D01*
X61293Y335370D01*
X61357Y335444D01*
X61367Y335468D01*
X61382Y335489D01*
X61412Y335582D01*
X61449Y335672D01*
X61452Y335705D01*
X61458Y335723D01*
X61458Y335756D01*
X61467Y335839D01*
X61467Y349961D01*
X61452Y350057D01*
X61442Y350154D01*
X61432Y350178D01*
X61428Y350204D01*
X61382Y350289D01*
X61342Y350379D01*
X61325Y350398D01*
X61312Y350421D01*
X61242Y350488D01*
X61176Y350560D01*
X61153Y350572D01*
X61134Y350590D01*
X61046Y350631D01*
X60960Y350678D01*
X60935Y350683D01*
X60911Y350694D01*
X60814Y350705D01*
X60718Y350722D01*
X60692Y350718D01*
X60667Y350721D01*
X60572Y350700D01*
X60475Y350686D01*
X60452Y350674D01*
X60426Y350669D01*
X60343Y350619D01*
X60256Y350575D01*
X60237Y350556D01*
X60215Y350543D01*
X60152Y350469D01*
X60084Y350399D01*
X60068Y350371D01*
X60055Y350356D01*
X60043Y350325D01*
X60003Y350252D01*
X59743Y349625D01*
X56775Y346657D01*
X52898Y345051D01*
X48702Y345051D01*
X44825Y346657D01*
X41857Y349625D01*
X40251Y353502D01*
X40251Y357698D01*
X41857Y361575D01*
X44825Y364543D01*
X48702Y366149D01*
X52898Y366149D01*
X56775Y364543D01*
X59743Y361575D01*
X60003Y360948D01*
X60054Y360865D01*
X60100Y360779D01*
X60119Y360761D01*
X60132Y360739D01*
X60207Y360677D01*
X60278Y360610D01*
X60302Y360599D01*
X60322Y360582D01*
X60413Y360547D01*
X60501Y360506D01*
X60527Y360503D01*
X60551Y360494D01*
X60649Y360490D01*
X60745Y360479D01*
X60771Y360484D01*
X60797Y360483D01*
X60891Y360510D01*
X60986Y360531D01*
X61008Y360545D01*
X61033Y360552D01*
X61113Y360607D01*
X61197Y360657D01*
X61214Y360677D01*
X61235Y360692D01*
X61293Y360770D01*
X61357Y360844D01*
X61367Y360868D01*
X61382Y360889D01*
X61412Y360982D01*
X61449Y361072D01*
X61452Y361105D01*
X61458Y361123D01*
X61458Y361156D01*
X61467Y361239D01*
X61467Y376251D01*
X61453Y376341D01*
X61445Y376432D01*
X61433Y376461D01*
X61428Y376493D01*
X61385Y376574D01*
X61349Y376658D01*
X61323Y376690D01*
X61312Y376711D01*
X61289Y376733D01*
X61244Y376789D01*
X29717Y408316D01*
X29717Y541967D01*
X29703Y542057D01*
X29695Y542148D01*
X29683Y542178D01*
X29678Y542210D01*
X29635Y542291D01*
X29599Y542375D01*
X29573Y542407D01*
X29562Y542427D01*
X29539Y542450D01*
X29494Y542506D01*
X28499Y543501D01*
X27459Y546011D01*
X27459Y548729D01*
X28499Y551239D01*
X30421Y553161D01*
X32931Y554201D01*
X35649Y554201D01*
X38159Y553161D01*
X40081Y551239D01*
X41121Y548729D01*
X41121Y546011D01*
X40081Y543501D01*
X39086Y542506D01*
X39033Y542432D01*
X38973Y542362D01*
X38961Y542332D01*
X38942Y542306D01*
X38915Y542219D01*
X38881Y542134D01*
X38877Y542093D01*
X38870Y542071D01*
X38871Y542039D01*
X38863Y541967D01*
X38863Y540581D01*
X38874Y540510D01*
X38876Y540438D01*
X38894Y540389D01*
X38902Y540338D01*
X38936Y540275D01*
X38961Y540207D01*
X38993Y540167D01*
X39018Y540121D01*
X39070Y540071D01*
X39114Y540015D01*
X39158Y539987D01*
X39196Y539951D01*
X39261Y539921D01*
X39321Y539882D01*
X39372Y539869D01*
X39419Y539848D01*
X39490Y539840D01*
X39560Y539822D01*
X39612Y539826D01*
X39663Y539820D01*
X39734Y539836D01*
X39805Y539841D01*
X39853Y539862D01*
X39904Y539873D01*
X39965Y539909D01*
X40031Y539938D01*
X40087Y539982D01*
X40115Y539999D01*
X40130Y540017D01*
X40162Y540042D01*
X41851Y541731D01*
X44361Y542771D01*
X47079Y542771D01*
X49589Y541731D01*
X51511Y539809D01*
X52551Y537299D01*
X52551Y534581D01*
X51511Y532071D01*
X50516Y531076D01*
X50463Y531002D01*
X50403Y530932D01*
X50391Y530902D01*
X50372Y530876D01*
X50345Y530789D01*
X50311Y530704D01*
X50307Y530663D01*
X50300Y530641D01*
X50301Y530609D01*
X50293Y530537D01*
X50293Y530421D01*
X50304Y530350D01*
X50306Y530278D01*
X50324Y530229D01*
X50332Y530178D01*
X50366Y530115D01*
X50391Y530047D01*
X50423Y530006D01*
X50448Y529961D01*
X50500Y529911D01*
X50544Y529855D01*
X50588Y529827D01*
X50626Y529791D01*
X50691Y529761D01*
X50751Y529722D01*
X50802Y529709D01*
X50849Y529688D01*
X50920Y529680D01*
X50990Y529662D01*
X51042Y529666D01*
X51093Y529660D01*
X51164Y529676D01*
X51235Y529681D01*
X51283Y529702D01*
X51334Y529713D01*
X51395Y529749D01*
X51461Y529778D01*
X51517Y529822D01*
X51545Y529839D01*
X51560Y529857D01*
X51592Y529882D01*
X52011Y530301D01*
X54521Y531341D01*
X57239Y531341D01*
X59749Y530301D01*
X61671Y528379D01*
X62711Y525869D01*
X62711Y523151D01*
X61671Y520641D01*
X60676Y519646D01*
X60623Y519572D01*
X60563Y519502D01*
X60551Y519472D01*
X60532Y519446D01*
X60505Y519359D01*
X60471Y519274D01*
X60467Y519233D01*
X60460Y519211D01*
X60461Y519179D01*
X60453Y519107D01*
X60453Y420039D01*
X60467Y419949D01*
X60475Y419858D01*
X60487Y419829D01*
X60492Y419797D01*
X60535Y419716D01*
X60571Y419632D01*
X60597Y419600D01*
X60608Y419579D01*
X60631Y419557D01*
X60676Y419501D01*
X84298Y395879D01*
X84356Y395837D01*
X84408Y395788D01*
X84455Y395766D01*
X84497Y395736D01*
X84566Y395714D01*
X84631Y395684D01*
X84683Y395678D01*
X84733Y395663D01*
X84804Y395665D01*
X84875Y395657D01*
X84926Y395668D01*
X84978Y395670D01*
X85046Y395694D01*
X85116Y395709D01*
X85161Y395736D01*
X85209Y395754D01*
X85265Y395799D01*
X85327Y395836D01*
X85361Y395875D01*
X85401Y395908D01*
X85440Y395968D01*
X85487Y396022D01*
X85506Y396071D01*
X85534Y396115D01*
X85552Y396184D01*
X85579Y396251D01*
X85587Y396322D01*
X85595Y396353D01*
X85593Y396376D01*
X85597Y396417D01*
X85597Y408001D01*
X85583Y408091D01*
X85575Y408182D01*
X85563Y408211D01*
X85558Y408243D01*
X85515Y408324D01*
X85479Y408408D01*
X85453Y408440D01*
X85442Y408461D01*
X85419Y408483D01*
X85374Y408539D01*
X81867Y412046D01*
X81793Y412099D01*
X81723Y412159D01*
X81693Y412171D01*
X81667Y412190D01*
X81580Y412217D01*
X81495Y412251D01*
X81454Y412255D01*
X81432Y412262D01*
X81400Y412261D01*
X81329Y412269D01*
X79921Y412269D01*
X77411Y413309D01*
X75489Y415231D01*
X74449Y417741D01*
X74449Y420459D01*
X75489Y422969D01*
X77411Y424891D01*
X79921Y425931D01*
X82639Y425931D01*
X85149Y424891D01*
X87071Y422969D01*
X88111Y420459D01*
X88111Y419051D01*
X88125Y418961D01*
X88133Y418870D01*
X88145Y418841D01*
X88150Y418809D01*
X88193Y418728D01*
X88229Y418644D01*
X88255Y418612D01*
X88266Y418591D01*
X88289Y418569D01*
X88334Y418513D01*
X94743Y412104D01*
X94743Y199059D01*
X94757Y198969D01*
X94765Y198878D01*
X94777Y198849D01*
X94782Y198817D01*
X94825Y198736D01*
X94861Y198652D01*
X94887Y198620D01*
X94898Y198599D01*
X94921Y198577D01*
X94966Y198521D01*
X168041Y125446D01*
X168115Y125393D01*
X168185Y125333D01*
X168215Y125321D01*
X168241Y125302D01*
X168328Y125275D01*
X168413Y125241D01*
X168454Y125237D01*
X168476Y125230D01*
X168508Y125231D01*
X168579Y125223D01*
X307964Y125223D01*
X354731Y78456D01*
X354805Y78403D01*
X354875Y78343D01*
X354905Y78331D01*
X354931Y78312D01*
X355018Y78285D01*
X355103Y78251D01*
X355144Y78247D01*
X355166Y78240D01*
X355198Y78241D01*
X355269Y78233D01*
X363844Y78233D01*
X384303Y57774D01*
X384303Y57399D01*
X384317Y57309D01*
X384325Y57218D01*
X384337Y57188D01*
X384342Y57156D01*
X384385Y57075D01*
X384421Y56991D01*
X384447Y56959D01*
X384458Y56939D01*
X384481Y56916D01*
X384526Y56860D01*
X394667Y46719D01*
X394741Y46666D01*
X394810Y46607D01*
X394841Y46594D01*
X394867Y46576D01*
X394954Y46549D01*
X395039Y46515D01*
X395080Y46510D01*
X395102Y46503D01*
X395134Y46504D01*
X395205Y46496D01*
X403398Y46496D01*
X409601Y40293D01*
X409601Y31521D01*
X403398Y25319D01*
X394626Y25319D01*
X388423Y31521D01*
X388423Y39714D01*
X388408Y39804D01*
X388401Y39895D01*
X388389Y39925D01*
X388383Y39957D01*
X388341Y40037D01*
X388305Y40121D01*
X388279Y40153D01*
X388268Y40174D01*
X388245Y40196D01*
X388200Y40252D01*
X375157Y53295D01*
X375157Y53671D01*
X375143Y53761D01*
X375135Y53852D01*
X375123Y53881D01*
X375118Y53913D01*
X375075Y53994D01*
X375039Y54078D01*
X375013Y54110D01*
X375002Y54131D01*
X374979Y54153D01*
X374934Y54209D01*
X360279Y68864D01*
X360205Y68917D01*
X360135Y68977D01*
X360105Y68989D01*
X360079Y69008D01*
X359992Y69035D01*
X359907Y69069D01*
X359866Y69073D01*
X359844Y69080D01*
X359812Y69079D01*
X359741Y69087D01*
X351166Y69087D01*
X304399Y115854D01*
X304325Y115907D01*
X304255Y115967D01*
X304225Y115979D01*
X304199Y115998D01*
X304112Y116025D01*
X304027Y116059D01*
X303986Y116063D01*
X303964Y116070D01*
X303932Y116069D01*
X303861Y116077D01*
X303707Y116077D01*
X303637Y116066D01*
X303565Y116064D01*
X303516Y116046D01*
X303465Y116038D01*
X303401Y116004D01*
X303334Y115979D01*
X303293Y115947D01*
X303247Y115922D01*
X303198Y115870D01*
X303142Y115826D01*
X303114Y115782D01*
X303078Y115744D01*
X303048Y115679D01*
X303009Y115619D01*
X302996Y115568D01*
X302974Y115521D01*
X302966Y115450D01*
X302949Y115380D01*
X302953Y115328D01*
X302947Y115277D01*
X302962Y115206D01*
X302968Y115135D01*
X302988Y115087D01*
X302999Y115036D01*
X303036Y114975D01*
X303064Y114909D01*
X303109Y114853D01*
X303126Y114825D01*
X303143Y114810D01*
X303169Y114778D01*
X304516Y113431D01*
X371228Y46719D01*
X371302Y46666D01*
X371371Y46607D01*
X371401Y46594D01*
X371427Y46576D01*
X371514Y46549D01*
X371599Y46515D01*
X371640Y46510D01*
X371663Y46503D01*
X371695Y46504D01*
X371766Y46496D01*
X377998Y46496D01*
X384201Y40293D01*
X384201Y31521D01*
X377998Y25319D01*
X369226Y25319D01*
X363023Y31521D01*
X363023Y40293D01*
X363333Y40603D01*
X363345Y40620D01*
X363360Y40632D01*
X363417Y40719D01*
X363477Y40803D01*
X363483Y40822D01*
X363493Y40839D01*
X363519Y40939D01*
X363549Y41038D01*
X363549Y41058D01*
X363553Y41077D01*
X363545Y41180D01*
X363543Y41284D01*
X363536Y41303D01*
X363534Y41323D01*
X363494Y41417D01*
X363458Y41515D01*
X363446Y41531D01*
X363438Y41549D01*
X363333Y41680D01*
X298049Y106964D01*
X297975Y107017D01*
X297905Y107077D01*
X297875Y107089D01*
X297849Y107108D01*
X297762Y107135D01*
X297677Y107169D01*
X297636Y107173D01*
X297614Y107180D01*
X297582Y107179D01*
X297511Y107187D01*
X296087Y107187D01*
X296017Y107176D01*
X295945Y107174D01*
X295896Y107156D01*
X295845Y107148D01*
X295781Y107114D01*
X295714Y107089D01*
X295673Y107057D01*
X295627Y107032D01*
X295578Y106980D01*
X295522Y106936D01*
X295494Y106892D01*
X295458Y106854D01*
X295428Y106789D01*
X295389Y106729D01*
X295376Y106678D01*
X295354Y106631D01*
X295346Y106560D01*
X295329Y106490D01*
X295333Y106438D01*
X295327Y106387D01*
X295342Y106316D01*
X295348Y106245D01*
X295368Y106197D01*
X295379Y106146D01*
X295416Y106085D01*
X295444Y106019D01*
X295489Y105963D01*
X295506Y105935D01*
X295523Y105920D01*
X295549Y105888D01*
X352785Y48652D01*
X352785Y46625D01*
X352799Y46535D01*
X352807Y46444D01*
X352819Y46414D01*
X352824Y46382D01*
X352867Y46301D01*
X352903Y46217D01*
X352929Y46185D01*
X352939Y46165D01*
X352963Y46142D01*
X353008Y46086D01*
X358801Y40293D01*
X358801Y31521D01*
X352598Y25319D01*
X343826Y25319D01*
X337623Y31521D01*
X337623Y40293D01*
X342378Y45048D01*
X342390Y45065D01*
X342405Y45077D01*
X342461Y45164D01*
X342522Y45248D01*
X342528Y45267D01*
X342538Y45284D01*
X342564Y45384D01*
X342594Y45483D01*
X342594Y45503D01*
X342598Y45522D01*
X342590Y45625D01*
X342588Y45729D01*
X342581Y45748D01*
X342579Y45768D01*
X342539Y45862D01*
X342503Y45960D01*
X342491Y45976D01*
X342483Y45994D01*
X342378Y46125D01*
X328684Y59819D01*
X328626Y59861D01*
X328574Y59910D01*
X328527Y59932D01*
X328484Y59963D01*
X328416Y59984D01*
X328351Y60014D01*
X328299Y60020D01*
X328249Y60035D01*
X328178Y60033D01*
X328106Y60041D01*
X328056Y60030D01*
X328004Y60029D01*
X327936Y60004D01*
X327866Y59989D01*
X327821Y59962D01*
X327772Y59944D01*
X327716Y59899D01*
X327655Y59862D01*
X327621Y59823D01*
X327580Y59790D01*
X327542Y59730D01*
X327495Y59676D01*
X327476Y59627D01*
X327447Y59583D01*
X327430Y59514D01*
X327403Y59447D01*
X327395Y59376D01*
X327387Y59345D01*
X327389Y59322D01*
X327385Y59281D01*
X327385Y46625D01*
X327399Y46535D01*
X327407Y46444D01*
X327419Y46414D01*
X327424Y46382D01*
X327467Y46301D01*
X327503Y46217D01*
X327529Y46185D01*
X327539Y46165D01*
X327563Y46142D01*
X327608Y46086D01*
X333401Y40293D01*
X333401Y31521D01*
X327198Y25319D01*
X318426Y25319D01*
G37*
%LPD*%
%LPC*%
G36*
X420026Y25319D02*
X420026Y25319D01*
X413823Y31521D01*
X413823Y40293D01*
X417058Y43528D01*
X417112Y43603D01*
X417171Y43673D01*
X417183Y43702D01*
X417202Y43728D01*
X417229Y43816D01*
X417263Y43901D01*
X417267Y43941D01*
X417274Y43963D01*
X417273Y43995D01*
X417281Y44068D01*
X417085Y131828D01*
X417082Y131847D01*
X417084Y131865D01*
X417062Y131967D01*
X417045Y132070D01*
X417036Y132087D01*
X417032Y132106D01*
X416978Y132195D01*
X416929Y132288D01*
X416915Y132301D01*
X416905Y132317D01*
X416826Y132385D01*
X416750Y132456D01*
X416733Y132464D01*
X416718Y132477D01*
X416622Y132516D01*
X416527Y132560D01*
X416508Y132562D01*
X416490Y132569D01*
X416324Y132587D01*
X175115Y132587D01*
X172501Y133670D01*
X100650Y205521D01*
X99567Y208135D01*
X99567Y556405D01*
X100650Y559019D01*
X102758Y561127D01*
X111541Y569910D01*
X114155Y570993D01*
X116985Y570993D01*
X119599Y569910D01*
X121600Y567909D01*
X122683Y565295D01*
X122683Y562465D01*
X121600Y559851D01*
X114016Y552267D01*
X113963Y552193D01*
X113903Y552123D01*
X113891Y552093D01*
X113872Y552067D01*
X113845Y551980D01*
X113811Y551895D01*
X113807Y551854D01*
X113800Y551832D01*
X113801Y551800D01*
X113793Y551728D01*
X113793Y212812D01*
X113807Y212721D01*
X113815Y212631D01*
X113827Y212601D01*
X113832Y212569D01*
X113875Y212488D01*
X113911Y212404D01*
X113937Y212372D01*
X113948Y212351D01*
X113971Y212329D01*
X114016Y212273D01*
X179253Y147036D01*
X179327Y146983D01*
X179397Y146923D01*
X179427Y146911D01*
X179453Y146892D01*
X179540Y146865D01*
X179625Y146831D01*
X179666Y146827D01*
X179688Y146820D01*
X179720Y146821D01*
X179792Y146813D01*
X424180Y146813D01*
X424181Y146813D01*
X425679Y146816D01*
X425686Y146814D01*
X425704Y146816D01*
X425706Y146816D01*
X425737Y146813D01*
X668369Y146813D01*
X668415Y146820D01*
X668461Y146818D01*
X668535Y146840D01*
X668612Y146852D01*
X668653Y146874D01*
X668697Y146887D01*
X668761Y146931D01*
X668830Y146968D01*
X668861Y147001D01*
X668899Y147027D01*
X668945Y147090D01*
X668999Y147146D01*
X669018Y147188D01*
X669046Y147224D01*
X669070Y147298D01*
X669103Y147369D01*
X669108Y147415D01*
X669122Y147458D01*
X669121Y147536D01*
X669130Y147613D01*
X669120Y147658D01*
X669119Y147704D01*
X669081Y147835D01*
X669077Y147854D01*
X669075Y147858D01*
X669073Y147865D01*
X668809Y148501D01*
X668809Y151219D01*
X669849Y153729D01*
X671771Y155651D01*
X674281Y156691D01*
X676999Y156691D01*
X679509Y155651D01*
X681431Y153729D01*
X682471Y151219D01*
X682471Y148501D01*
X682207Y147865D01*
X682197Y147821D01*
X682177Y147779D01*
X682169Y147702D01*
X682151Y147626D01*
X682155Y147580D01*
X682150Y147535D01*
X682167Y147458D01*
X682174Y147381D01*
X682193Y147339D01*
X682203Y147294D01*
X682243Y147227D01*
X682274Y147156D01*
X682305Y147122D01*
X682329Y147083D01*
X682388Y147032D01*
X682441Y146975D01*
X682481Y146953D01*
X682516Y146923D01*
X682588Y146894D01*
X682656Y146857D01*
X682701Y146848D01*
X682744Y146831D01*
X682880Y146816D01*
X682898Y146813D01*
X682903Y146814D01*
X682911Y146813D01*
X903115Y146813D01*
X905729Y145730D01*
X920430Y131029D01*
X921513Y128415D01*
X921513Y125585D01*
X920430Y122971D01*
X918429Y120970D01*
X915815Y119887D01*
X912985Y119887D01*
X910371Y120970D01*
X898977Y132364D01*
X898903Y132417D01*
X898833Y132477D01*
X898803Y132489D01*
X898777Y132508D01*
X898690Y132535D01*
X898605Y132569D01*
X898564Y132573D01*
X898542Y132580D01*
X898510Y132579D01*
X898438Y132587D01*
X432072Y132587D01*
X432051Y132584D01*
X432030Y132586D01*
X431930Y132564D01*
X431829Y132548D01*
X431811Y132538D01*
X431790Y132533D01*
X431702Y132480D01*
X431611Y132432D01*
X431597Y132417D01*
X431579Y132407D01*
X431513Y132328D01*
X431442Y132254D01*
X431433Y132235D01*
X431420Y132219D01*
X431382Y132124D01*
X431338Y132031D01*
X431336Y132010D01*
X431328Y131991D01*
X431310Y131824D01*
X431506Y44101D01*
X431521Y44012D01*
X431528Y43922D01*
X431541Y43891D01*
X431547Y43859D01*
X431589Y43779D01*
X431625Y43696D01*
X431651Y43663D01*
X431662Y43641D01*
X431685Y43619D01*
X431729Y43565D01*
X435001Y40293D01*
X435001Y31521D01*
X428798Y25319D01*
X420026Y25319D01*
G37*
%LPD*%
%LPC*%
G36*
X366406Y236727D02*
X366406Y236727D01*
X363504Y239629D01*
X359461Y243673D01*
X359365Y243741D01*
X359351Y243752D01*
X359348Y243754D01*
X359347Y243754D01*
X359272Y243811D01*
X359266Y243812D01*
X359261Y243816D01*
X359149Y243851D01*
X359038Y243887D01*
X359032Y243887D01*
X359026Y243889D01*
X358909Y243885D01*
X358792Y243884D01*
X358785Y243882D01*
X358780Y243882D01*
X358762Y243876D01*
X358631Y243838D01*
X357698Y243451D01*
X353502Y243451D01*
X349625Y245057D01*
X346657Y248025D01*
X345051Y251902D01*
X345051Y256098D01*
X346657Y259975D01*
X349625Y262943D01*
X353502Y264549D01*
X357698Y264549D01*
X361575Y262943D01*
X364543Y259975D01*
X366149Y256098D01*
X366149Y251902D01*
X365762Y250969D01*
X365754Y250933D01*
X365748Y250921D01*
X365746Y250898D01*
X365736Y250856D01*
X365707Y250742D01*
X365708Y250736D01*
X365706Y250730D01*
X365717Y250613D01*
X365726Y250497D01*
X365729Y250491D01*
X365729Y250485D01*
X365777Y250377D01*
X365823Y250270D01*
X365827Y250265D01*
X365829Y250260D01*
X365842Y250246D01*
X365927Y250139D01*
X369971Y246096D01*
X370045Y246043D01*
X370115Y245983D01*
X370145Y245971D01*
X370171Y245952D01*
X370258Y245925D01*
X370343Y245891D01*
X370384Y245887D01*
X370406Y245880D01*
X370438Y245881D01*
X370509Y245873D01*
X385071Y245873D01*
X385142Y245884D01*
X385214Y245886D01*
X385263Y245904D01*
X385314Y245912D01*
X385377Y245946D01*
X385445Y245971D01*
X385485Y246003D01*
X385531Y246028D01*
X385581Y246080D01*
X385637Y246124D01*
X385665Y246168D01*
X385701Y246206D01*
X385731Y246271D01*
X385770Y246331D01*
X385782Y246382D01*
X385804Y246429D01*
X385812Y246500D01*
X385830Y246570D01*
X385826Y246622D01*
X385832Y246673D01*
X385816Y246744D01*
X385811Y246815D01*
X385790Y246863D01*
X385779Y246914D01*
X385742Y246975D01*
X385714Y247041D01*
X385670Y247097D01*
X385653Y247125D01*
X385635Y247140D01*
X385610Y247172D01*
X384757Y248025D01*
X383151Y251902D01*
X383151Y256098D01*
X384757Y259975D01*
X385610Y260828D01*
X385651Y260886D01*
X385701Y260938D01*
X385723Y260985D01*
X385753Y261027D01*
X385774Y261096D01*
X385804Y261161D01*
X385810Y261213D01*
X385825Y261263D01*
X385824Y261334D01*
X385832Y261405D01*
X385820Y261456D01*
X385819Y261508D01*
X385794Y261576D01*
X385779Y261646D01*
X385753Y261691D01*
X385735Y261739D01*
X385690Y261795D01*
X385653Y261857D01*
X385614Y261891D01*
X385581Y261931D01*
X385521Y261970D01*
X385466Y262017D01*
X385418Y262036D01*
X385374Y262064D01*
X385305Y262082D01*
X385238Y262109D01*
X385167Y262117D01*
X385136Y262125D01*
X385112Y262123D01*
X385071Y262127D01*
X366406Y262127D01*
X359461Y269073D01*
X359367Y269140D01*
X359272Y269211D01*
X359266Y269212D01*
X359261Y269216D01*
X359150Y269250D01*
X359038Y269287D01*
X359032Y269287D01*
X359026Y269288D01*
X358909Y269285D01*
X358792Y269284D01*
X358785Y269282D01*
X358780Y269282D01*
X358762Y269276D01*
X358631Y269238D01*
X357698Y268851D01*
X353502Y268851D01*
X349625Y270457D01*
X346657Y273425D01*
X345051Y277302D01*
X345051Y281498D01*
X346657Y285375D01*
X349625Y288343D01*
X353502Y289949D01*
X357698Y289949D01*
X361575Y288343D01*
X364543Y285375D01*
X366149Y281498D01*
X366149Y277302D01*
X365762Y276369D01*
X365736Y276255D01*
X365707Y276142D01*
X365708Y276136D01*
X365706Y276130D01*
X365717Y276013D01*
X365726Y275897D01*
X365729Y275891D01*
X365729Y275885D01*
X365777Y275777D01*
X365823Y275670D01*
X365827Y275665D01*
X365829Y275660D01*
X365842Y275646D01*
X365927Y275539D01*
X369971Y271496D01*
X370045Y271443D01*
X370115Y271383D01*
X370145Y271371D01*
X370171Y271352D01*
X370258Y271325D01*
X370343Y271291D01*
X370384Y271287D01*
X370406Y271280D01*
X370438Y271281D01*
X370509Y271273D01*
X385071Y271273D01*
X385142Y271284D01*
X385214Y271286D01*
X385263Y271304D01*
X385314Y271312D01*
X385377Y271346D01*
X385445Y271371D01*
X385485Y271403D01*
X385531Y271428D01*
X385581Y271480D01*
X385637Y271524D01*
X385665Y271568D01*
X385701Y271606D01*
X385731Y271671D01*
X385770Y271731D01*
X385782Y271782D01*
X385804Y271829D01*
X385812Y271900D01*
X385830Y271970D01*
X385826Y272022D01*
X385832Y272073D01*
X385816Y272144D01*
X385811Y272215D01*
X385790Y272263D01*
X385779Y272314D01*
X385742Y272375D01*
X385714Y272441D01*
X385670Y272497D01*
X385653Y272525D01*
X385635Y272540D01*
X385610Y272572D01*
X384757Y273425D01*
X383151Y277302D01*
X383151Y281498D01*
X384757Y285375D01*
X386238Y286856D01*
X386279Y286914D01*
X386329Y286966D01*
X386351Y287013D01*
X386381Y287055D01*
X386402Y287124D01*
X386432Y287189D01*
X386438Y287241D01*
X386453Y287291D01*
X386452Y287362D01*
X386460Y287433D01*
X386448Y287484D01*
X386447Y287536D01*
X386422Y287604D01*
X386407Y287674D01*
X386381Y287719D01*
X386363Y287767D01*
X386318Y287823D01*
X386281Y287885D01*
X386242Y287919D01*
X386209Y287959D01*
X386149Y287998D01*
X386094Y288045D01*
X386046Y288064D01*
X386002Y288092D01*
X385933Y288110D01*
X385866Y288137D01*
X385795Y288145D01*
X385764Y288153D01*
X385740Y288151D01*
X385699Y288155D01*
X379185Y288155D01*
X370705Y296635D01*
X370705Y312166D01*
X370702Y312186D01*
X370704Y312205D01*
X370682Y312307D01*
X370666Y312409D01*
X370656Y312426D01*
X370652Y312446D01*
X370599Y312535D01*
X370550Y312626D01*
X370536Y312640D01*
X370526Y312657D01*
X370447Y312724D01*
X370372Y312796D01*
X370354Y312804D01*
X370339Y312817D01*
X370243Y312856D01*
X370149Y312899D01*
X370129Y312901D01*
X370111Y312909D01*
X369944Y312927D01*
X366406Y312927D01*
X363504Y315829D01*
X359461Y319873D01*
X359366Y319941D01*
X359272Y320011D01*
X359266Y320013D01*
X359261Y320016D01*
X359149Y320050D01*
X359038Y320087D01*
X359032Y320087D01*
X359026Y320089D01*
X358909Y320085D01*
X358792Y320084D01*
X358785Y320082D01*
X358780Y320082D01*
X358762Y320076D01*
X358631Y320038D01*
X357698Y319651D01*
X353502Y319651D01*
X349625Y321257D01*
X346657Y324225D01*
X345051Y328102D01*
X345051Y332298D01*
X346657Y336175D01*
X349625Y339143D01*
X353502Y340749D01*
X357698Y340749D01*
X361575Y339143D01*
X364543Y336175D01*
X366149Y332298D01*
X366149Y328102D01*
X365762Y327169D01*
X365736Y327056D01*
X365707Y326942D01*
X365708Y326936D01*
X365706Y326930D01*
X365717Y326813D01*
X365726Y326697D01*
X365729Y326691D01*
X365729Y326685D01*
X365777Y326577D01*
X365823Y326470D01*
X365827Y326465D01*
X365829Y326460D01*
X365842Y326446D01*
X365927Y326339D01*
X369971Y322296D01*
X370045Y322243D01*
X370115Y322183D01*
X370145Y322171D01*
X370171Y322152D01*
X370258Y322125D01*
X370343Y322091D01*
X370384Y322087D01*
X370406Y322080D01*
X370438Y322081D01*
X370509Y322073D01*
X385071Y322073D01*
X385142Y322084D01*
X385214Y322086D01*
X385263Y322104D01*
X385314Y322112D01*
X385377Y322146D01*
X385445Y322171D01*
X385485Y322203D01*
X385531Y322228D01*
X385581Y322280D01*
X385637Y322324D01*
X385665Y322368D01*
X385701Y322406D01*
X385731Y322471D01*
X385770Y322531D01*
X385782Y322582D01*
X385804Y322629D01*
X385812Y322700D01*
X385830Y322770D01*
X385826Y322822D01*
X385832Y322873D01*
X385816Y322944D01*
X385811Y323015D01*
X385790Y323063D01*
X385779Y323114D01*
X385742Y323175D01*
X385714Y323241D01*
X385670Y323297D01*
X385653Y323325D01*
X385635Y323340D01*
X385610Y323372D01*
X384757Y324225D01*
X383151Y328102D01*
X383151Y332298D01*
X384757Y336175D01*
X385610Y337028D01*
X385651Y337086D01*
X385701Y337138D01*
X385723Y337185D01*
X385753Y337227D01*
X385774Y337296D01*
X385804Y337361D01*
X385810Y337413D01*
X385825Y337463D01*
X385824Y337534D01*
X385832Y337605D01*
X385820Y337656D01*
X385819Y337708D01*
X385794Y337776D01*
X385779Y337846D01*
X385753Y337891D01*
X385735Y337939D01*
X385690Y337995D01*
X385653Y338057D01*
X385614Y338091D01*
X385581Y338131D01*
X385521Y338170D01*
X385466Y338217D01*
X385418Y338236D01*
X385374Y338264D01*
X385305Y338282D01*
X385238Y338309D01*
X385167Y338317D01*
X385136Y338325D01*
X385112Y338323D01*
X385071Y338327D01*
X366406Y338327D01*
X359461Y345273D01*
X359367Y345340D01*
X359272Y345411D01*
X359266Y345412D01*
X359261Y345416D01*
X359150Y345450D01*
X359038Y345487D01*
X359032Y345487D01*
X359026Y345488D01*
X358909Y345485D01*
X358792Y345484D01*
X358785Y345482D01*
X358780Y345482D01*
X358762Y345476D01*
X358631Y345438D01*
X357698Y345051D01*
X353502Y345051D01*
X349625Y346657D01*
X346657Y349625D01*
X345051Y353502D01*
X345051Y357698D01*
X346657Y361575D01*
X349625Y364543D01*
X353502Y366149D01*
X357698Y366149D01*
X361575Y364543D01*
X364543Y361575D01*
X366149Y357698D01*
X366149Y353502D01*
X365762Y352569D01*
X365736Y352455D01*
X365707Y352342D01*
X365708Y352336D01*
X365706Y352330D01*
X365717Y352213D01*
X365726Y352097D01*
X365729Y352091D01*
X365729Y352085D01*
X365777Y351977D01*
X365823Y351870D01*
X365827Y351865D01*
X365829Y351860D01*
X365842Y351846D01*
X365927Y351739D01*
X369971Y347696D01*
X370045Y347643D01*
X370115Y347583D01*
X370145Y347571D01*
X370171Y347552D01*
X370258Y347525D01*
X370343Y347491D01*
X370384Y347487D01*
X370406Y347480D01*
X370438Y347481D01*
X370509Y347473D01*
X385071Y347473D01*
X385142Y347484D01*
X385214Y347486D01*
X385263Y347504D01*
X385314Y347512D01*
X385377Y347546D01*
X385445Y347571D01*
X385485Y347603D01*
X385531Y347628D01*
X385581Y347680D01*
X385637Y347724D01*
X385665Y347768D01*
X385701Y347806D01*
X385731Y347871D01*
X385770Y347931D01*
X385782Y347982D01*
X385804Y348029D01*
X385812Y348100D01*
X385830Y348170D01*
X385826Y348222D01*
X385832Y348273D01*
X385816Y348344D01*
X385811Y348415D01*
X385790Y348463D01*
X385779Y348514D01*
X385742Y348575D01*
X385714Y348641D01*
X385670Y348697D01*
X385653Y348725D01*
X385635Y348740D01*
X385610Y348772D01*
X384757Y349625D01*
X383151Y353502D01*
X383151Y357698D01*
X384757Y361575D01*
X387725Y364543D01*
X391602Y366149D01*
X395798Y366149D01*
X396731Y365762D01*
X396844Y365736D01*
X396958Y365707D01*
X396964Y365708D01*
X396970Y365706D01*
X397087Y365717D01*
X397203Y365726D01*
X397209Y365729D01*
X397215Y365729D01*
X397323Y365777D01*
X397430Y365823D01*
X397435Y365827D01*
X397440Y365829D01*
X397454Y365842D01*
X397561Y365927D01*
X401604Y369971D01*
X404506Y372873D01*
X497194Y372873D01*
X500096Y369971D01*
X504139Y365927D01*
X504235Y365859D01*
X504328Y365789D01*
X504334Y365788D01*
X504339Y365784D01*
X504451Y365749D01*
X504562Y365713D01*
X504568Y365713D01*
X504574Y365711D01*
X504691Y365715D01*
X504808Y365716D01*
X504815Y365718D01*
X504820Y365718D01*
X504838Y365724D01*
X504969Y365762D01*
X505902Y366149D01*
X510098Y366149D01*
X513975Y364543D01*
X516943Y361575D01*
X518549Y357698D01*
X518549Y353502D01*
X516943Y349625D01*
X513975Y346657D01*
X510098Y345051D01*
X505902Y345051D01*
X502025Y346657D01*
X499057Y349625D01*
X497451Y353502D01*
X497451Y357698D01*
X497838Y358631D01*
X497864Y358744D01*
X497893Y358858D01*
X497892Y358864D01*
X497894Y358870D01*
X497883Y358987D01*
X497874Y359103D01*
X497871Y359109D01*
X497871Y359115D01*
X497823Y359223D01*
X497777Y359330D01*
X497773Y359335D01*
X497771Y359340D01*
X497758Y359354D01*
X497673Y359461D01*
X493629Y363504D01*
X493555Y363557D01*
X493485Y363617D01*
X493455Y363629D01*
X493429Y363648D01*
X493342Y363675D01*
X493257Y363709D01*
X493216Y363713D01*
X493194Y363720D01*
X493162Y363719D01*
X493091Y363727D01*
X478529Y363727D01*
X478458Y363716D01*
X478386Y363714D01*
X478337Y363696D01*
X478286Y363688D01*
X478223Y363654D01*
X478155Y363629D01*
X478115Y363597D01*
X478069Y363572D01*
X478019Y363520D01*
X477963Y363476D01*
X477935Y363432D01*
X477899Y363394D01*
X477869Y363329D01*
X477830Y363269D01*
X477818Y363218D01*
X477796Y363171D01*
X477788Y363100D01*
X477770Y363030D01*
X477774Y362978D01*
X477768Y362927D01*
X477784Y362856D01*
X477789Y362785D01*
X477810Y362737D01*
X477821Y362686D01*
X477858Y362625D01*
X477886Y362559D01*
X477930Y362503D01*
X477947Y362475D01*
X477965Y362460D01*
X477990Y362428D01*
X478843Y361575D01*
X480449Y357698D01*
X480449Y353502D01*
X478843Y349625D01*
X477990Y348772D01*
X477949Y348714D01*
X477899Y348662D01*
X477877Y348615D01*
X477847Y348573D01*
X477826Y348504D01*
X477796Y348439D01*
X477790Y348387D01*
X477775Y348337D01*
X477776Y348266D01*
X477768Y348195D01*
X477780Y348144D01*
X477781Y348092D01*
X477806Y348024D01*
X477821Y347954D01*
X477847Y347909D01*
X477865Y347861D01*
X477910Y347805D01*
X477947Y347743D01*
X477986Y347709D01*
X478019Y347669D01*
X478079Y347630D01*
X478134Y347583D01*
X478182Y347564D01*
X478226Y347536D01*
X478295Y347518D01*
X478362Y347491D01*
X478433Y347483D01*
X478464Y347475D01*
X478488Y347477D01*
X478529Y347473D01*
X497194Y347473D01*
X500096Y344571D01*
X504139Y340527D01*
X504235Y340459D01*
X504328Y340389D01*
X504334Y340388D01*
X504339Y340384D01*
X504451Y340349D01*
X504562Y340313D01*
X504568Y340313D01*
X504574Y340311D01*
X504691Y340315D01*
X504808Y340316D01*
X504815Y340318D01*
X504820Y340318D01*
X504838Y340324D01*
X504969Y340362D01*
X505902Y340749D01*
X510098Y340749D01*
X513975Y339143D01*
X516943Y336175D01*
X518549Y332298D01*
X518549Y328102D01*
X516943Y324225D01*
X513975Y321257D01*
X510098Y319651D01*
X505902Y319651D01*
X502025Y321257D01*
X499057Y324225D01*
X497451Y328102D01*
X497451Y332298D01*
X497838Y333231D01*
X497864Y333344D01*
X497893Y333458D01*
X497892Y333464D01*
X497894Y333470D01*
X497883Y333587D01*
X497874Y333703D01*
X497871Y333709D01*
X497871Y333715D01*
X497823Y333823D01*
X497777Y333930D01*
X497773Y333935D01*
X497771Y333940D01*
X497758Y333954D01*
X497673Y334061D01*
X493629Y338104D01*
X493555Y338157D01*
X493485Y338217D01*
X493455Y338229D01*
X493429Y338248D01*
X493342Y338275D01*
X493257Y338309D01*
X493216Y338313D01*
X493194Y338320D01*
X493162Y338319D01*
X493091Y338327D01*
X478529Y338327D01*
X478458Y338316D01*
X478386Y338314D01*
X478337Y338296D01*
X478286Y338288D01*
X478223Y338254D01*
X478155Y338229D01*
X478115Y338197D01*
X478069Y338172D01*
X478019Y338120D01*
X477963Y338076D01*
X477935Y338032D01*
X477899Y337994D01*
X477869Y337929D01*
X477830Y337869D01*
X477818Y337818D01*
X477796Y337771D01*
X477788Y337700D01*
X477770Y337630D01*
X477774Y337578D01*
X477768Y337527D01*
X477784Y337456D01*
X477789Y337385D01*
X477810Y337337D01*
X477821Y337286D01*
X477858Y337225D01*
X477886Y337159D01*
X477930Y337103D01*
X477947Y337075D01*
X477965Y337060D01*
X477990Y337028D01*
X478843Y336175D01*
X480449Y332298D01*
X480449Y328102D01*
X478843Y324225D01*
X475875Y321257D01*
X471998Y319651D01*
X467802Y319651D01*
X466869Y320038D01*
X466756Y320064D01*
X466642Y320093D01*
X466636Y320092D01*
X466630Y320094D01*
X466513Y320083D01*
X466397Y320074D01*
X466391Y320071D01*
X466385Y320071D01*
X466277Y320023D01*
X466170Y319977D01*
X466165Y319973D01*
X466160Y319971D01*
X466146Y319958D01*
X466039Y319873D01*
X461996Y315829D01*
X459094Y312927D01*
X402329Y312927D01*
X402258Y312916D01*
X402186Y312914D01*
X402137Y312896D01*
X402086Y312888D01*
X402023Y312854D01*
X401955Y312829D01*
X401915Y312797D01*
X401869Y312772D01*
X401819Y312720D01*
X401763Y312676D01*
X401735Y312632D01*
X401699Y312594D01*
X401669Y312529D01*
X401630Y312469D01*
X401618Y312418D01*
X401596Y312371D01*
X401588Y312300D01*
X401570Y312230D01*
X401574Y312178D01*
X401568Y312127D01*
X401584Y312056D01*
X401589Y311985D01*
X401610Y311937D01*
X401621Y311886D01*
X401658Y311825D01*
X401686Y311759D01*
X401730Y311703D01*
X401747Y311675D01*
X401765Y311660D01*
X401790Y311628D01*
X402643Y310775D01*
X403029Y309843D01*
X403091Y309743D01*
X403151Y309643D01*
X403155Y309639D01*
X403159Y309634D01*
X403249Y309559D01*
X403338Y309483D01*
X403343Y309481D01*
X403348Y309477D01*
X403457Y309435D01*
X403566Y309391D01*
X403573Y309390D01*
X403578Y309389D01*
X403596Y309388D01*
X403732Y309373D01*
X459868Y309373D01*
X459982Y309392D01*
X460099Y309409D01*
X460104Y309411D01*
X460110Y309412D01*
X460213Y309467D01*
X460318Y309520D01*
X460322Y309525D01*
X460328Y309528D01*
X460408Y309612D01*
X460490Y309696D01*
X460494Y309702D01*
X460497Y309706D01*
X460505Y309723D01*
X460571Y309843D01*
X460957Y310775D01*
X463925Y313743D01*
X467802Y315349D01*
X471998Y315349D01*
X475875Y313743D01*
X478843Y310775D01*
X480449Y306898D01*
X480449Y302702D01*
X478843Y298825D01*
X477990Y297972D01*
X477949Y297914D01*
X477899Y297862D01*
X477877Y297815D01*
X477847Y297773D01*
X477826Y297704D01*
X477796Y297639D01*
X477790Y297587D01*
X477775Y297537D01*
X477776Y297466D01*
X477768Y297395D01*
X477780Y297344D01*
X477781Y297292D01*
X477806Y297224D01*
X477821Y297154D01*
X477847Y297109D01*
X477865Y297061D01*
X477910Y297005D01*
X477947Y296943D01*
X477986Y296909D01*
X478019Y296869D01*
X478079Y296830D01*
X478134Y296783D01*
X478182Y296764D01*
X478226Y296736D01*
X478295Y296718D01*
X478362Y296691D01*
X478433Y296683D01*
X478464Y296675D01*
X478488Y296677D01*
X478529Y296673D01*
X497194Y296673D01*
X500096Y293771D01*
X504139Y289727D01*
X504235Y289659D01*
X504328Y289589D01*
X504334Y289588D01*
X504339Y289584D01*
X504451Y289549D01*
X504562Y289513D01*
X504568Y289513D01*
X504574Y289511D01*
X504691Y289515D01*
X504808Y289516D01*
X504815Y289518D01*
X504820Y289518D01*
X504838Y289524D01*
X504969Y289562D01*
X505902Y289949D01*
X510098Y289949D01*
X513975Y288343D01*
X516943Y285375D01*
X518549Y281498D01*
X518549Y277302D01*
X516943Y273425D01*
X513975Y270457D01*
X510098Y268851D01*
X505902Y268851D01*
X502025Y270457D01*
X499057Y273425D01*
X497451Y277302D01*
X497451Y281498D01*
X497838Y282431D01*
X497846Y282468D01*
X497853Y282483D01*
X497856Y282511D01*
X497864Y282544D01*
X497893Y282658D01*
X497892Y282664D01*
X497894Y282670D01*
X497883Y282787D01*
X497874Y282903D01*
X497871Y282909D01*
X497871Y282915D01*
X497823Y283023D01*
X497777Y283130D01*
X497773Y283135D01*
X497771Y283140D01*
X497758Y283154D01*
X497673Y283261D01*
X493629Y287304D01*
X493555Y287357D01*
X493485Y287417D01*
X493455Y287429D01*
X493429Y287448D01*
X493342Y287475D01*
X493257Y287509D01*
X493216Y287513D01*
X493194Y287520D01*
X493162Y287519D01*
X493091Y287527D01*
X478529Y287527D01*
X478458Y287516D01*
X478386Y287514D01*
X478337Y287496D01*
X478286Y287488D01*
X478223Y287454D01*
X478155Y287429D01*
X478115Y287397D01*
X478069Y287372D01*
X478019Y287320D01*
X477963Y287276D01*
X477935Y287232D01*
X477899Y287194D01*
X477869Y287129D01*
X477830Y287069D01*
X477818Y287018D01*
X477796Y286971D01*
X477788Y286900D01*
X477770Y286830D01*
X477774Y286778D01*
X477768Y286727D01*
X477784Y286656D01*
X477789Y286585D01*
X477810Y286537D01*
X477821Y286486D01*
X477858Y286425D01*
X477886Y286359D01*
X477930Y286303D01*
X477947Y286275D01*
X477965Y286260D01*
X477990Y286228D01*
X478843Y285375D01*
X480449Y281498D01*
X480449Y277302D01*
X478843Y273425D01*
X477990Y272572D01*
X477949Y272514D01*
X477899Y272462D01*
X477877Y272415D01*
X477847Y272373D01*
X477826Y272304D01*
X477796Y272239D01*
X477790Y272187D01*
X477775Y272137D01*
X477776Y272066D01*
X477768Y271995D01*
X477780Y271944D01*
X477781Y271892D01*
X477806Y271824D01*
X477821Y271754D01*
X477847Y271709D01*
X477865Y271661D01*
X477910Y271605D01*
X477947Y271543D01*
X477986Y271509D01*
X478019Y271469D01*
X478079Y271430D01*
X478134Y271383D01*
X478182Y271364D01*
X478226Y271336D01*
X478295Y271318D01*
X478362Y271291D01*
X478433Y271283D01*
X478464Y271275D01*
X478488Y271277D01*
X478529Y271273D01*
X497194Y271273D01*
X500096Y268371D01*
X504139Y264327D01*
X504235Y264259D01*
X504328Y264189D01*
X504334Y264188D01*
X504339Y264184D01*
X504451Y264149D01*
X504562Y264113D01*
X504568Y264113D01*
X504574Y264111D01*
X504691Y264115D01*
X504808Y264116D01*
X504815Y264118D01*
X504820Y264118D01*
X504838Y264124D01*
X504969Y264162D01*
X505902Y264549D01*
X510098Y264549D01*
X513975Y262943D01*
X516943Y259975D01*
X518549Y256098D01*
X518549Y251902D01*
X516943Y248025D01*
X513975Y245057D01*
X510098Y243451D01*
X505902Y243451D01*
X502025Y245057D01*
X499057Y248025D01*
X497451Y251902D01*
X497451Y256098D01*
X497838Y257031D01*
X497864Y257144D01*
X497893Y257258D01*
X497892Y257264D01*
X497894Y257270D01*
X497883Y257387D01*
X497874Y257503D01*
X497871Y257509D01*
X497871Y257515D01*
X497823Y257623D01*
X497777Y257730D01*
X497773Y257735D01*
X497771Y257740D01*
X497758Y257754D01*
X497673Y257861D01*
X493629Y261904D01*
X493555Y261957D01*
X493485Y262017D01*
X493455Y262029D01*
X493429Y262048D01*
X493342Y262075D01*
X493257Y262109D01*
X493216Y262113D01*
X493194Y262120D01*
X493162Y262119D01*
X493091Y262127D01*
X478529Y262127D01*
X478458Y262116D01*
X478386Y262114D01*
X478337Y262096D01*
X478286Y262088D01*
X478223Y262054D01*
X478155Y262029D01*
X478115Y261997D01*
X478069Y261972D01*
X478019Y261920D01*
X477963Y261876D01*
X477935Y261832D01*
X477899Y261794D01*
X477869Y261729D01*
X477830Y261669D01*
X477818Y261618D01*
X477796Y261571D01*
X477788Y261500D01*
X477770Y261430D01*
X477774Y261378D01*
X477768Y261327D01*
X477784Y261256D01*
X477789Y261185D01*
X477810Y261137D01*
X477821Y261086D01*
X477858Y261025D01*
X477886Y260959D01*
X477930Y260903D01*
X477947Y260875D01*
X477965Y260860D01*
X477990Y260828D01*
X478843Y259975D01*
X480449Y256098D01*
X480449Y251902D01*
X478843Y248025D01*
X475875Y245057D01*
X471998Y243451D01*
X467802Y243451D01*
X466869Y243838D01*
X466756Y243864D01*
X466642Y243893D01*
X466636Y243892D01*
X466630Y243894D01*
X466513Y243883D01*
X466397Y243874D01*
X466391Y243871D01*
X466385Y243871D01*
X466277Y243823D01*
X466170Y243777D01*
X466165Y243773D01*
X466160Y243771D01*
X466146Y243758D01*
X466039Y243673D01*
X461996Y239629D01*
X459094Y236727D01*
X366406Y236727D01*
G37*
%LPD*%
%LPC*%
G36*
X595006Y236727D02*
X595006Y236727D01*
X592104Y239629D01*
X588061Y243673D01*
X587965Y243741D01*
X587951Y243752D01*
X587948Y243754D01*
X587947Y243754D01*
X587872Y243811D01*
X587866Y243812D01*
X587861Y243816D01*
X587749Y243851D01*
X587638Y243887D01*
X587632Y243887D01*
X587626Y243889D01*
X587509Y243885D01*
X587392Y243884D01*
X587385Y243882D01*
X587380Y243882D01*
X587362Y243876D01*
X587231Y243838D01*
X586298Y243451D01*
X582102Y243451D01*
X578225Y245057D01*
X575257Y248025D01*
X573651Y251902D01*
X573651Y256098D01*
X575257Y259975D01*
X578225Y262943D01*
X582102Y264549D01*
X586298Y264549D01*
X590175Y262943D01*
X593143Y259975D01*
X594749Y256098D01*
X594749Y251902D01*
X594362Y250969D01*
X594354Y250933D01*
X594348Y250921D01*
X594346Y250898D01*
X594336Y250856D01*
X594307Y250742D01*
X594308Y250736D01*
X594306Y250730D01*
X594317Y250613D01*
X594326Y250497D01*
X594329Y250491D01*
X594329Y250485D01*
X594377Y250377D01*
X594423Y250270D01*
X594427Y250265D01*
X594429Y250260D01*
X594442Y250246D01*
X594527Y250139D01*
X598571Y246096D01*
X598645Y246043D01*
X598715Y245983D01*
X598745Y245971D01*
X598771Y245952D01*
X598858Y245925D01*
X598943Y245891D01*
X598984Y245887D01*
X599006Y245880D01*
X599038Y245881D01*
X599109Y245873D01*
X613671Y245873D01*
X613742Y245884D01*
X613814Y245886D01*
X613863Y245904D01*
X613914Y245912D01*
X613977Y245946D01*
X614045Y245971D01*
X614085Y246003D01*
X614131Y246028D01*
X614181Y246080D01*
X614237Y246124D01*
X614265Y246168D01*
X614301Y246206D01*
X614331Y246271D01*
X614370Y246331D01*
X614382Y246382D01*
X614404Y246429D01*
X614412Y246500D01*
X614430Y246570D01*
X614426Y246622D01*
X614432Y246673D01*
X614416Y246744D01*
X614411Y246815D01*
X614390Y246863D01*
X614379Y246914D01*
X614342Y246975D01*
X614314Y247041D01*
X614270Y247097D01*
X614253Y247125D01*
X614235Y247140D01*
X614210Y247172D01*
X613357Y248025D01*
X611751Y251902D01*
X611751Y256098D01*
X613357Y259975D01*
X614210Y260828D01*
X614251Y260886D01*
X614301Y260938D01*
X614323Y260985D01*
X614353Y261027D01*
X614374Y261096D01*
X614404Y261161D01*
X614410Y261213D01*
X614425Y261263D01*
X614424Y261334D01*
X614432Y261405D01*
X614420Y261456D01*
X614419Y261508D01*
X614394Y261576D01*
X614379Y261646D01*
X614353Y261691D01*
X614335Y261739D01*
X614290Y261795D01*
X614253Y261857D01*
X614214Y261891D01*
X614181Y261931D01*
X614121Y261970D01*
X614066Y262017D01*
X614018Y262036D01*
X613974Y262064D01*
X613905Y262082D01*
X613838Y262109D01*
X613767Y262117D01*
X613736Y262125D01*
X613712Y262123D01*
X613671Y262127D01*
X595006Y262127D01*
X592104Y265029D01*
X588061Y269073D01*
X587965Y269141D01*
X587872Y269211D01*
X587866Y269212D01*
X587861Y269216D01*
X587749Y269251D01*
X587638Y269287D01*
X587632Y269287D01*
X587626Y269289D01*
X587509Y269285D01*
X587392Y269284D01*
X587385Y269282D01*
X587380Y269282D01*
X587362Y269276D01*
X587231Y269238D01*
X586298Y268851D01*
X582102Y268851D01*
X578225Y270457D01*
X575257Y273425D01*
X573651Y277302D01*
X573651Y281498D01*
X575257Y285375D01*
X578225Y288343D01*
X582102Y289949D01*
X586298Y289949D01*
X590175Y288343D01*
X593143Y285375D01*
X594749Y281498D01*
X594749Y277302D01*
X594362Y276369D01*
X594336Y276256D01*
X594307Y276142D01*
X594308Y276136D01*
X594306Y276130D01*
X594317Y276013D01*
X594326Y275897D01*
X594329Y275891D01*
X594329Y275885D01*
X594377Y275777D01*
X594423Y275670D01*
X594427Y275665D01*
X594429Y275660D01*
X594442Y275646D01*
X594527Y275539D01*
X598571Y271496D01*
X598645Y271443D01*
X598715Y271383D01*
X598745Y271371D01*
X598771Y271352D01*
X598858Y271325D01*
X598943Y271291D01*
X598984Y271287D01*
X599006Y271280D01*
X599038Y271281D01*
X599109Y271273D01*
X613671Y271273D01*
X613742Y271284D01*
X613814Y271286D01*
X613863Y271304D01*
X613914Y271312D01*
X613977Y271346D01*
X614045Y271371D01*
X614085Y271403D01*
X614131Y271428D01*
X614181Y271480D01*
X614237Y271524D01*
X614265Y271568D01*
X614301Y271606D01*
X614331Y271671D01*
X614370Y271731D01*
X614382Y271782D01*
X614404Y271829D01*
X614412Y271900D01*
X614430Y271970D01*
X614426Y272022D01*
X614432Y272073D01*
X614416Y272144D01*
X614411Y272215D01*
X614390Y272263D01*
X614379Y272314D01*
X614342Y272375D01*
X614314Y272441D01*
X614270Y272497D01*
X614253Y272525D01*
X614235Y272540D01*
X614210Y272572D01*
X613357Y273425D01*
X611751Y277302D01*
X611751Y281498D01*
X613357Y285375D01*
X616325Y288343D01*
X620202Y289949D01*
X624398Y289949D01*
X628275Y288343D01*
X631243Y285375D01*
X631629Y284443D01*
X631691Y284343D01*
X631751Y284243D01*
X631755Y284239D01*
X631759Y284234D01*
X631849Y284159D01*
X631938Y284083D01*
X631943Y284081D01*
X631948Y284077D01*
X632057Y284035D01*
X632166Y283991D01*
X632173Y283990D01*
X632178Y283989D01*
X632196Y283988D01*
X632332Y283973D01*
X645491Y283973D01*
X645581Y283987D01*
X645672Y283995D01*
X645701Y284007D01*
X645733Y284012D01*
X645814Y284055D01*
X645898Y284091D01*
X645930Y284117D01*
X645951Y284128D01*
X645973Y284151D01*
X646029Y284196D01*
X658506Y296673D01*
X689871Y296673D01*
X689942Y296684D01*
X690014Y296686D01*
X690063Y296704D01*
X690114Y296712D01*
X690177Y296746D01*
X690245Y296771D01*
X690285Y296803D01*
X690331Y296828D01*
X690381Y296880D01*
X690437Y296924D01*
X690465Y296968D01*
X690501Y297006D01*
X690531Y297071D01*
X690570Y297131D01*
X690582Y297182D01*
X690604Y297229D01*
X690612Y297300D01*
X690630Y297370D01*
X690626Y297422D01*
X690632Y297473D01*
X690616Y297544D01*
X690611Y297615D01*
X690590Y297663D01*
X690579Y297714D01*
X690542Y297775D01*
X690514Y297841D01*
X690470Y297897D01*
X690453Y297925D01*
X690435Y297940D01*
X690410Y297972D01*
X689557Y298825D01*
X689171Y299757D01*
X689109Y299857D01*
X689049Y299957D01*
X689045Y299961D01*
X689041Y299966D01*
X688951Y300041D01*
X688862Y300117D01*
X688857Y300119D01*
X688852Y300123D01*
X688743Y300165D01*
X688634Y300209D01*
X688627Y300210D01*
X688622Y300211D01*
X688604Y300212D01*
X688468Y300227D01*
X632332Y300227D01*
X632218Y300208D01*
X632101Y300191D01*
X632096Y300189D01*
X632090Y300188D01*
X631987Y300133D01*
X631882Y300080D01*
X631878Y300075D01*
X631872Y300072D01*
X631792Y299988D01*
X631710Y299904D01*
X631706Y299898D01*
X631703Y299894D01*
X631695Y299877D01*
X631629Y299757D01*
X631243Y298825D01*
X628275Y295857D01*
X624398Y294251D01*
X620202Y294251D01*
X616325Y295857D01*
X613357Y298825D01*
X611751Y302702D01*
X611751Y306898D01*
X613357Y310775D01*
X614210Y311628D01*
X614251Y311686D01*
X614301Y311738D01*
X614323Y311785D01*
X614353Y311827D01*
X614374Y311896D01*
X614404Y311961D01*
X614410Y312013D01*
X614425Y312063D01*
X614424Y312134D01*
X614432Y312205D01*
X614420Y312256D01*
X614419Y312308D01*
X614394Y312376D01*
X614379Y312446D01*
X614353Y312491D01*
X614335Y312539D01*
X614290Y312595D01*
X614253Y312657D01*
X614214Y312691D01*
X614181Y312731D01*
X614121Y312770D01*
X614066Y312817D01*
X614018Y312836D01*
X613974Y312864D01*
X613905Y312882D01*
X613838Y312909D01*
X613767Y312917D01*
X613736Y312925D01*
X613712Y312923D01*
X613671Y312927D01*
X595006Y312927D01*
X592104Y315829D01*
X588061Y319873D01*
X587965Y319941D01*
X587872Y320011D01*
X587866Y320012D01*
X587861Y320016D01*
X587749Y320051D01*
X587638Y320087D01*
X587632Y320087D01*
X587626Y320089D01*
X587509Y320085D01*
X587392Y320084D01*
X587385Y320082D01*
X587380Y320082D01*
X587362Y320076D01*
X587231Y320038D01*
X586298Y319651D01*
X582102Y319651D01*
X578225Y321257D01*
X575257Y324225D01*
X573651Y328102D01*
X573651Y332298D01*
X575257Y336175D01*
X578225Y339143D01*
X582102Y340749D01*
X586298Y340749D01*
X590175Y339143D01*
X593143Y336175D01*
X594749Y332298D01*
X594749Y328102D01*
X594362Y327169D01*
X594336Y327056D01*
X594307Y326942D01*
X594308Y326936D01*
X594306Y326930D01*
X594317Y326813D01*
X594326Y326697D01*
X594329Y326691D01*
X594329Y326685D01*
X594377Y326577D01*
X594423Y326470D01*
X594427Y326465D01*
X594429Y326460D01*
X594442Y326446D01*
X594527Y326339D01*
X598571Y322296D01*
X598645Y322243D01*
X598715Y322183D01*
X598745Y322171D01*
X598771Y322152D01*
X598858Y322125D01*
X598943Y322091D01*
X598984Y322087D01*
X599006Y322080D01*
X599038Y322081D01*
X599109Y322073D01*
X613671Y322073D01*
X613742Y322084D01*
X613814Y322086D01*
X613863Y322104D01*
X613914Y322112D01*
X613977Y322146D01*
X614045Y322171D01*
X614085Y322203D01*
X614131Y322228D01*
X614181Y322280D01*
X614237Y322324D01*
X614265Y322368D01*
X614301Y322406D01*
X614331Y322471D01*
X614370Y322531D01*
X614382Y322582D01*
X614404Y322629D01*
X614412Y322700D01*
X614430Y322770D01*
X614426Y322822D01*
X614432Y322873D01*
X614416Y322944D01*
X614411Y323015D01*
X614390Y323063D01*
X614379Y323114D01*
X614342Y323175D01*
X614314Y323241D01*
X614270Y323297D01*
X614253Y323325D01*
X614235Y323340D01*
X614210Y323372D01*
X613357Y324225D01*
X611751Y328102D01*
X611751Y332298D01*
X613357Y336175D01*
X614210Y337028D01*
X614251Y337086D01*
X614301Y337138D01*
X614323Y337185D01*
X614353Y337227D01*
X614374Y337296D01*
X614404Y337361D01*
X614410Y337413D01*
X614425Y337463D01*
X614424Y337534D01*
X614432Y337605D01*
X614420Y337656D01*
X614419Y337708D01*
X614394Y337776D01*
X614379Y337846D01*
X614353Y337891D01*
X614335Y337939D01*
X614290Y337995D01*
X614253Y338057D01*
X614214Y338091D01*
X614181Y338131D01*
X614121Y338170D01*
X614066Y338217D01*
X614018Y338236D01*
X613974Y338264D01*
X613905Y338282D01*
X613838Y338309D01*
X613767Y338317D01*
X613736Y338325D01*
X613712Y338323D01*
X613671Y338327D01*
X595006Y338327D01*
X592104Y341229D01*
X588061Y345273D01*
X587965Y345341D01*
X587872Y345411D01*
X587866Y345412D01*
X587861Y345416D01*
X587749Y345451D01*
X587638Y345487D01*
X587632Y345487D01*
X587626Y345489D01*
X587509Y345485D01*
X587392Y345484D01*
X587385Y345482D01*
X587380Y345482D01*
X587362Y345476D01*
X587231Y345438D01*
X586298Y345051D01*
X582102Y345051D01*
X578225Y346657D01*
X575257Y349625D01*
X573651Y353502D01*
X573651Y357698D01*
X575257Y361575D01*
X578225Y364543D01*
X582102Y366149D01*
X586298Y366149D01*
X590175Y364543D01*
X593143Y361575D01*
X594749Y357698D01*
X594749Y353502D01*
X594362Y352569D01*
X594336Y352456D01*
X594307Y352342D01*
X594308Y352336D01*
X594306Y352330D01*
X594317Y352213D01*
X594326Y352097D01*
X594329Y352091D01*
X594329Y352085D01*
X594377Y351977D01*
X594423Y351870D01*
X594427Y351865D01*
X594429Y351860D01*
X594442Y351846D01*
X594527Y351739D01*
X598571Y347696D01*
X598645Y347643D01*
X598715Y347583D01*
X598745Y347571D01*
X598771Y347552D01*
X598858Y347525D01*
X598943Y347491D01*
X598984Y347487D01*
X599006Y347480D01*
X599038Y347481D01*
X599109Y347473D01*
X613671Y347473D01*
X613742Y347484D01*
X613814Y347486D01*
X613863Y347504D01*
X613914Y347512D01*
X613977Y347546D01*
X614045Y347571D01*
X614085Y347603D01*
X614131Y347628D01*
X614181Y347680D01*
X614237Y347724D01*
X614265Y347768D01*
X614301Y347806D01*
X614331Y347871D01*
X614370Y347931D01*
X614382Y347982D01*
X614404Y348029D01*
X614412Y348100D01*
X614430Y348170D01*
X614426Y348222D01*
X614432Y348273D01*
X614416Y348344D01*
X614411Y348415D01*
X614390Y348463D01*
X614379Y348514D01*
X614342Y348575D01*
X614314Y348641D01*
X614270Y348697D01*
X614253Y348725D01*
X614235Y348740D01*
X614210Y348772D01*
X613357Y349625D01*
X611751Y353502D01*
X611751Y357698D01*
X613357Y361575D01*
X616325Y364543D01*
X620202Y366149D01*
X624398Y366149D01*
X625331Y365762D01*
X625444Y365736D01*
X625558Y365707D01*
X625564Y365708D01*
X625570Y365706D01*
X625687Y365717D01*
X625803Y365726D01*
X625809Y365729D01*
X625815Y365729D01*
X625923Y365777D01*
X626030Y365823D01*
X626035Y365827D01*
X626040Y365829D01*
X626054Y365842D01*
X626161Y365927D01*
X630204Y369971D01*
X633106Y372873D01*
X725794Y372873D01*
X732739Y365927D01*
X732835Y365859D01*
X732928Y365789D01*
X732934Y365788D01*
X732939Y365784D01*
X733051Y365749D01*
X733162Y365713D01*
X733168Y365713D01*
X733174Y365711D01*
X733291Y365715D01*
X733408Y365716D01*
X733415Y365718D01*
X733420Y365718D01*
X733438Y365724D01*
X733569Y365762D01*
X734502Y366149D01*
X738698Y366149D01*
X742575Y364543D01*
X745543Y361575D01*
X747149Y357698D01*
X747149Y353502D01*
X745543Y349625D01*
X742575Y346657D01*
X738698Y345051D01*
X734502Y345051D01*
X730625Y346657D01*
X727657Y349625D01*
X726051Y353502D01*
X726051Y357698D01*
X726438Y358631D01*
X726464Y358744D01*
X726493Y358858D01*
X726492Y358864D01*
X726494Y358870D01*
X726483Y358987D01*
X726474Y359103D01*
X726471Y359109D01*
X726471Y359115D01*
X726423Y359223D01*
X726377Y359330D01*
X726373Y359335D01*
X726371Y359340D01*
X726358Y359354D01*
X726273Y359461D01*
X722229Y363504D01*
X722155Y363557D01*
X722085Y363617D01*
X722055Y363629D01*
X722029Y363648D01*
X721942Y363675D01*
X721857Y363709D01*
X721816Y363713D01*
X721794Y363720D01*
X721762Y363719D01*
X721691Y363727D01*
X707129Y363727D01*
X707058Y363716D01*
X706986Y363714D01*
X706937Y363696D01*
X706886Y363688D01*
X706823Y363654D01*
X706755Y363629D01*
X706715Y363597D01*
X706669Y363572D01*
X706619Y363520D01*
X706563Y363476D01*
X706535Y363432D01*
X706499Y363394D01*
X706469Y363329D01*
X706430Y363269D01*
X706418Y363218D01*
X706396Y363171D01*
X706388Y363100D01*
X706370Y363030D01*
X706374Y362978D01*
X706368Y362927D01*
X706384Y362856D01*
X706389Y362785D01*
X706410Y362737D01*
X706421Y362686D01*
X706458Y362625D01*
X706486Y362559D01*
X706530Y362503D01*
X706547Y362475D01*
X706565Y362460D01*
X706590Y362428D01*
X707443Y361575D01*
X709049Y357698D01*
X709049Y353502D01*
X707443Y349625D01*
X706590Y348772D01*
X706549Y348714D01*
X706499Y348662D01*
X706477Y348615D01*
X706447Y348573D01*
X706426Y348504D01*
X706396Y348439D01*
X706390Y348387D01*
X706375Y348337D01*
X706376Y348266D01*
X706368Y348195D01*
X706380Y348144D01*
X706381Y348092D01*
X706406Y348024D01*
X706421Y347954D01*
X706447Y347909D01*
X706465Y347861D01*
X706510Y347805D01*
X706547Y347743D01*
X706586Y347709D01*
X706619Y347669D01*
X706679Y347630D01*
X706734Y347583D01*
X706782Y347564D01*
X706826Y347536D01*
X706895Y347518D01*
X706962Y347491D01*
X707033Y347483D01*
X707064Y347475D01*
X707088Y347477D01*
X707129Y347473D01*
X725794Y347473D01*
X732739Y340527D01*
X732833Y340460D01*
X732928Y340389D01*
X732934Y340388D01*
X732939Y340384D01*
X733050Y340350D01*
X733162Y340313D01*
X733168Y340313D01*
X733174Y340312D01*
X733291Y340315D01*
X733408Y340316D01*
X733415Y340318D01*
X733420Y340318D01*
X733438Y340324D01*
X733569Y340362D01*
X734502Y340749D01*
X738698Y340749D01*
X742575Y339143D01*
X745543Y336175D01*
X747149Y332298D01*
X747149Y328102D01*
X745543Y324225D01*
X742575Y321257D01*
X738698Y319651D01*
X734502Y319651D01*
X730625Y321257D01*
X727657Y324225D01*
X726051Y328102D01*
X726051Y332298D01*
X726438Y333231D01*
X726464Y333345D01*
X726493Y333458D01*
X726492Y333464D01*
X726494Y333470D01*
X726483Y333587D01*
X726474Y333703D01*
X726471Y333709D01*
X726471Y333715D01*
X726423Y333823D01*
X726377Y333930D01*
X726373Y333935D01*
X726371Y333940D01*
X726358Y333954D01*
X726273Y334061D01*
X722229Y338104D01*
X722155Y338157D01*
X722085Y338217D01*
X722055Y338229D01*
X722029Y338248D01*
X721942Y338275D01*
X721857Y338309D01*
X721816Y338313D01*
X721794Y338320D01*
X721762Y338319D01*
X721691Y338327D01*
X707129Y338327D01*
X707058Y338316D01*
X706986Y338314D01*
X706937Y338296D01*
X706886Y338288D01*
X706823Y338254D01*
X706755Y338229D01*
X706715Y338197D01*
X706669Y338172D01*
X706619Y338120D01*
X706563Y338076D01*
X706535Y338032D01*
X706499Y337994D01*
X706469Y337929D01*
X706430Y337869D01*
X706418Y337818D01*
X706396Y337771D01*
X706388Y337700D01*
X706370Y337630D01*
X706374Y337578D01*
X706368Y337527D01*
X706384Y337456D01*
X706389Y337385D01*
X706410Y337337D01*
X706421Y337286D01*
X706458Y337225D01*
X706486Y337159D01*
X706530Y337103D01*
X706547Y337075D01*
X706565Y337060D01*
X706590Y337028D01*
X707443Y336175D01*
X709049Y332298D01*
X709049Y328102D01*
X707443Y324225D01*
X704475Y321257D01*
X700598Y319651D01*
X696402Y319651D01*
X695469Y320038D01*
X695356Y320064D01*
X695242Y320093D01*
X695236Y320092D01*
X695230Y320094D01*
X695113Y320083D01*
X694997Y320074D01*
X694991Y320071D01*
X694985Y320071D01*
X694877Y320023D01*
X694770Y319977D01*
X694765Y319973D01*
X694760Y319971D01*
X694746Y319958D01*
X694639Y319873D01*
X687694Y312927D01*
X630929Y312927D01*
X630858Y312916D01*
X630786Y312914D01*
X630737Y312896D01*
X630686Y312888D01*
X630623Y312854D01*
X630555Y312829D01*
X630515Y312797D01*
X630469Y312772D01*
X630419Y312720D01*
X630363Y312676D01*
X630335Y312632D01*
X630299Y312594D01*
X630269Y312529D01*
X630230Y312469D01*
X630218Y312418D01*
X630196Y312371D01*
X630188Y312300D01*
X630170Y312230D01*
X630174Y312178D01*
X630168Y312127D01*
X630184Y312056D01*
X630189Y311985D01*
X630210Y311937D01*
X630221Y311886D01*
X630258Y311825D01*
X630286Y311759D01*
X630330Y311703D01*
X630347Y311675D01*
X630365Y311660D01*
X630390Y311628D01*
X631243Y310775D01*
X631629Y309843D01*
X631691Y309743D01*
X631751Y309643D01*
X631755Y309639D01*
X631759Y309634D01*
X631849Y309559D01*
X631938Y309483D01*
X631943Y309481D01*
X631948Y309477D01*
X632057Y309435D01*
X632166Y309391D01*
X632173Y309390D01*
X632178Y309389D01*
X632196Y309388D01*
X632332Y309373D01*
X688468Y309373D01*
X688582Y309392D01*
X688699Y309409D01*
X688704Y309411D01*
X688710Y309412D01*
X688813Y309467D01*
X688918Y309520D01*
X688922Y309525D01*
X688928Y309528D01*
X689008Y309612D01*
X689090Y309696D01*
X689094Y309702D01*
X689097Y309706D01*
X689105Y309723D01*
X689171Y309843D01*
X689557Y310775D01*
X692525Y313743D01*
X696402Y315349D01*
X700598Y315349D01*
X704475Y313743D01*
X707443Y310775D01*
X709049Y306898D01*
X709049Y302702D01*
X707443Y298825D01*
X706590Y297972D01*
X706549Y297914D01*
X706499Y297862D01*
X706477Y297815D01*
X706447Y297773D01*
X706426Y297704D01*
X706396Y297639D01*
X706390Y297587D01*
X706375Y297537D01*
X706376Y297466D01*
X706368Y297395D01*
X706380Y297344D01*
X706381Y297292D01*
X706406Y297224D01*
X706421Y297154D01*
X706447Y297109D01*
X706465Y297061D01*
X706510Y297005D01*
X706547Y296943D01*
X706586Y296909D01*
X706619Y296869D01*
X706679Y296830D01*
X706734Y296783D01*
X706782Y296764D01*
X706826Y296736D01*
X706895Y296718D01*
X706962Y296691D01*
X707033Y296683D01*
X707064Y296675D01*
X707088Y296677D01*
X707129Y296673D01*
X725794Y296673D01*
X732739Y289727D01*
X732833Y289660D01*
X732928Y289589D01*
X732934Y289588D01*
X732939Y289584D01*
X733050Y289550D01*
X733162Y289513D01*
X733168Y289513D01*
X733174Y289512D01*
X733291Y289515D01*
X733408Y289516D01*
X733415Y289518D01*
X733420Y289518D01*
X733438Y289524D01*
X733569Y289562D01*
X734502Y289949D01*
X738698Y289949D01*
X742575Y288343D01*
X745543Y285375D01*
X747149Y281498D01*
X747149Y277302D01*
X745543Y273425D01*
X742575Y270457D01*
X738698Y268851D01*
X734502Y268851D01*
X730625Y270457D01*
X727657Y273425D01*
X726051Y277302D01*
X726051Y281498D01*
X726438Y282431D01*
X726446Y282468D01*
X726453Y282483D01*
X726456Y282511D01*
X726464Y282545D01*
X726493Y282658D01*
X726492Y282664D01*
X726494Y282670D01*
X726483Y282787D01*
X726474Y282903D01*
X726471Y282909D01*
X726471Y282915D01*
X726423Y283023D01*
X726377Y283130D01*
X726373Y283135D01*
X726371Y283140D01*
X726358Y283154D01*
X726273Y283261D01*
X722229Y287304D01*
X722155Y287357D01*
X722085Y287417D01*
X722055Y287429D01*
X722029Y287448D01*
X721942Y287475D01*
X721857Y287509D01*
X721816Y287513D01*
X721794Y287520D01*
X721762Y287519D01*
X721691Y287527D01*
X707129Y287527D01*
X707058Y287516D01*
X706986Y287514D01*
X706937Y287496D01*
X706886Y287488D01*
X706823Y287454D01*
X706755Y287429D01*
X706715Y287397D01*
X706669Y287372D01*
X706619Y287320D01*
X706563Y287276D01*
X706535Y287232D01*
X706499Y287194D01*
X706469Y287129D01*
X706430Y287069D01*
X706418Y287018D01*
X706396Y286971D01*
X706388Y286900D01*
X706370Y286830D01*
X706374Y286778D01*
X706368Y286727D01*
X706384Y286656D01*
X706389Y286585D01*
X706410Y286537D01*
X706421Y286486D01*
X706458Y286425D01*
X706486Y286359D01*
X706530Y286303D01*
X706547Y286275D01*
X706565Y286260D01*
X706590Y286228D01*
X707443Y285375D01*
X709049Y281498D01*
X709049Y277302D01*
X707443Y273425D01*
X706590Y272572D01*
X706549Y272514D01*
X706499Y272462D01*
X706477Y272415D01*
X706447Y272373D01*
X706426Y272304D01*
X706396Y272239D01*
X706390Y272187D01*
X706375Y272137D01*
X706376Y272066D01*
X706368Y271995D01*
X706380Y271944D01*
X706381Y271892D01*
X706406Y271824D01*
X706421Y271754D01*
X706447Y271709D01*
X706465Y271661D01*
X706510Y271605D01*
X706547Y271543D01*
X706586Y271509D01*
X706619Y271469D01*
X706679Y271430D01*
X706734Y271383D01*
X706782Y271364D01*
X706826Y271336D01*
X706895Y271318D01*
X706962Y271291D01*
X707033Y271283D01*
X707064Y271275D01*
X707088Y271277D01*
X707129Y271273D01*
X725794Y271273D01*
X728696Y268371D01*
X732739Y264327D01*
X732835Y264259D01*
X732928Y264189D01*
X732934Y264188D01*
X732939Y264184D01*
X733051Y264149D01*
X733162Y264113D01*
X733168Y264113D01*
X733174Y264111D01*
X733291Y264115D01*
X733408Y264116D01*
X733415Y264118D01*
X733420Y264118D01*
X733438Y264124D01*
X733569Y264162D01*
X734502Y264549D01*
X738698Y264549D01*
X742575Y262943D01*
X745543Y259975D01*
X747149Y256098D01*
X747149Y251902D01*
X745543Y248025D01*
X742575Y245057D01*
X738698Y243451D01*
X734502Y243451D01*
X730625Y245057D01*
X727657Y248025D01*
X726051Y251902D01*
X726051Y256098D01*
X726438Y257031D01*
X726464Y257144D01*
X726493Y257258D01*
X726492Y257264D01*
X726494Y257270D01*
X726483Y257387D01*
X726474Y257503D01*
X726471Y257509D01*
X726471Y257515D01*
X726423Y257623D01*
X726377Y257730D01*
X726373Y257735D01*
X726371Y257740D01*
X726358Y257754D01*
X726273Y257861D01*
X722229Y261904D01*
X722155Y261957D01*
X722085Y262017D01*
X722055Y262029D01*
X722029Y262048D01*
X721942Y262075D01*
X721857Y262109D01*
X721816Y262113D01*
X721794Y262120D01*
X721762Y262119D01*
X721691Y262127D01*
X707129Y262127D01*
X707058Y262116D01*
X706986Y262114D01*
X706937Y262096D01*
X706886Y262088D01*
X706823Y262054D01*
X706755Y262029D01*
X706715Y261997D01*
X706669Y261972D01*
X706619Y261920D01*
X706563Y261876D01*
X706535Y261832D01*
X706499Y261794D01*
X706469Y261729D01*
X706430Y261669D01*
X706418Y261618D01*
X706396Y261571D01*
X706388Y261500D01*
X706370Y261430D01*
X706374Y261378D01*
X706368Y261327D01*
X706384Y261256D01*
X706389Y261185D01*
X706410Y261137D01*
X706421Y261086D01*
X706458Y261025D01*
X706486Y260959D01*
X706530Y260903D01*
X706547Y260875D01*
X706565Y260860D01*
X706590Y260828D01*
X707443Y259975D01*
X709049Y256098D01*
X709049Y251902D01*
X707443Y248025D01*
X704475Y245057D01*
X700598Y243451D01*
X696402Y243451D01*
X695469Y243838D01*
X695356Y243864D01*
X695242Y243893D01*
X695236Y243892D01*
X695230Y243894D01*
X695113Y243883D01*
X694997Y243874D01*
X694991Y243871D01*
X694985Y243871D01*
X694877Y243823D01*
X694770Y243777D01*
X694765Y243773D01*
X694760Y243771D01*
X694746Y243758D01*
X694639Y243673D01*
X690596Y239629D01*
X687694Y236727D01*
X595006Y236727D01*
G37*
%LPD*%
%LPC*%
G36*
X137806Y236727D02*
X137806Y236727D01*
X134904Y239629D01*
X130861Y243673D01*
X130765Y243741D01*
X130751Y243752D01*
X130748Y243754D01*
X130747Y243754D01*
X130672Y243811D01*
X130666Y243812D01*
X130661Y243816D01*
X130549Y243851D01*
X130438Y243887D01*
X130432Y243887D01*
X130426Y243889D01*
X130309Y243885D01*
X130192Y243884D01*
X130185Y243882D01*
X130180Y243882D01*
X130162Y243876D01*
X130031Y243838D01*
X129098Y243451D01*
X124902Y243451D01*
X121025Y245057D01*
X118057Y248025D01*
X116451Y251902D01*
X116451Y256098D01*
X118057Y259975D01*
X121025Y262943D01*
X124902Y264549D01*
X129098Y264549D01*
X132975Y262943D01*
X135943Y259975D01*
X137549Y256098D01*
X137549Y251902D01*
X137162Y250969D01*
X137154Y250933D01*
X137148Y250921D01*
X137146Y250898D01*
X137136Y250856D01*
X137107Y250742D01*
X137108Y250736D01*
X137106Y250730D01*
X137117Y250613D01*
X137126Y250497D01*
X137129Y250491D01*
X137129Y250485D01*
X137177Y250377D01*
X137223Y250270D01*
X137227Y250265D01*
X137229Y250260D01*
X137242Y250246D01*
X137327Y250139D01*
X141371Y246096D01*
X141445Y246043D01*
X141515Y245983D01*
X141545Y245971D01*
X141571Y245952D01*
X141658Y245925D01*
X141743Y245891D01*
X141784Y245887D01*
X141806Y245880D01*
X141838Y245881D01*
X141909Y245873D01*
X156471Y245873D01*
X156542Y245884D01*
X156614Y245886D01*
X156663Y245904D01*
X156714Y245912D01*
X156777Y245946D01*
X156845Y245971D01*
X156885Y246003D01*
X156931Y246028D01*
X156981Y246080D01*
X157037Y246124D01*
X157065Y246168D01*
X157101Y246206D01*
X157131Y246271D01*
X157170Y246331D01*
X157182Y246382D01*
X157204Y246429D01*
X157212Y246500D01*
X157230Y246570D01*
X157226Y246622D01*
X157232Y246673D01*
X157216Y246744D01*
X157211Y246815D01*
X157190Y246863D01*
X157179Y246914D01*
X157142Y246975D01*
X157114Y247041D01*
X157070Y247097D01*
X157053Y247125D01*
X157035Y247140D01*
X157010Y247172D01*
X156157Y248025D01*
X154551Y251902D01*
X154551Y256098D01*
X156157Y259975D01*
X157010Y260828D01*
X157051Y260886D01*
X157101Y260938D01*
X157123Y260985D01*
X157153Y261027D01*
X157174Y261096D01*
X157204Y261161D01*
X157210Y261213D01*
X157225Y261263D01*
X157224Y261334D01*
X157232Y261405D01*
X157220Y261456D01*
X157219Y261508D01*
X157194Y261576D01*
X157179Y261646D01*
X157153Y261691D01*
X157135Y261739D01*
X157090Y261795D01*
X157053Y261857D01*
X157014Y261891D01*
X156981Y261931D01*
X156921Y261970D01*
X156866Y262017D01*
X156818Y262036D01*
X156774Y262064D01*
X156705Y262082D01*
X156638Y262109D01*
X156567Y262117D01*
X156536Y262125D01*
X156512Y262123D01*
X156471Y262127D01*
X137806Y262127D01*
X134904Y265029D01*
X130861Y269073D01*
X130765Y269141D01*
X130672Y269211D01*
X130666Y269212D01*
X130661Y269216D01*
X130549Y269251D01*
X130438Y269287D01*
X130432Y269287D01*
X130426Y269289D01*
X130309Y269285D01*
X130192Y269284D01*
X130185Y269282D01*
X130180Y269282D01*
X130162Y269276D01*
X130031Y269238D01*
X129098Y268851D01*
X124902Y268851D01*
X121025Y270457D01*
X118057Y273425D01*
X116451Y277302D01*
X116451Y281498D01*
X118057Y285375D01*
X121025Y288343D01*
X124902Y289949D01*
X129098Y289949D01*
X132975Y288343D01*
X135943Y285375D01*
X137549Y281498D01*
X137549Y277302D01*
X137162Y276369D01*
X137136Y276256D01*
X137107Y276142D01*
X137108Y276136D01*
X137106Y276130D01*
X137117Y276013D01*
X137126Y275897D01*
X137129Y275891D01*
X137129Y275885D01*
X137177Y275777D01*
X137223Y275670D01*
X137227Y275665D01*
X137229Y275660D01*
X137242Y275646D01*
X137327Y275539D01*
X141371Y271496D01*
X141445Y271443D01*
X141515Y271383D01*
X141545Y271371D01*
X141571Y271352D01*
X141658Y271325D01*
X141743Y271291D01*
X141784Y271287D01*
X141806Y271280D01*
X141838Y271281D01*
X141909Y271273D01*
X156471Y271273D01*
X156542Y271284D01*
X156614Y271286D01*
X156663Y271304D01*
X156714Y271312D01*
X156777Y271346D01*
X156845Y271371D01*
X156885Y271403D01*
X156931Y271428D01*
X156981Y271480D01*
X157037Y271524D01*
X157065Y271568D01*
X157101Y271606D01*
X157131Y271671D01*
X157170Y271731D01*
X157182Y271782D01*
X157204Y271829D01*
X157212Y271900D01*
X157230Y271970D01*
X157226Y272022D01*
X157232Y272073D01*
X157216Y272144D01*
X157211Y272215D01*
X157190Y272263D01*
X157179Y272314D01*
X157142Y272375D01*
X157114Y272441D01*
X157070Y272497D01*
X157053Y272525D01*
X157035Y272540D01*
X157010Y272572D01*
X156157Y273425D01*
X154551Y277302D01*
X154551Y281498D01*
X156157Y285375D01*
X159125Y288343D01*
X163002Y289949D01*
X167198Y289949D01*
X171075Y288343D01*
X174043Y285375D01*
X174429Y284443D01*
X174491Y284343D01*
X174551Y284243D01*
X174555Y284239D01*
X174559Y284234D01*
X174649Y284159D01*
X174738Y284083D01*
X174743Y284081D01*
X174748Y284077D01*
X174857Y284035D01*
X174966Y283991D01*
X174973Y283990D01*
X174978Y283989D01*
X174996Y283988D01*
X175132Y283973D01*
X188291Y283973D01*
X188381Y283987D01*
X188472Y283995D01*
X188501Y284007D01*
X188533Y284012D01*
X188614Y284055D01*
X188698Y284091D01*
X188730Y284117D01*
X188751Y284128D01*
X188773Y284151D01*
X188829Y284196D01*
X201306Y296673D01*
X232671Y296673D01*
X232742Y296684D01*
X232814Y296686D01*
X232863Y296704D01*
X232914Y296712D01*
X232977Y296746D01*
X233045Y296771D01*
X233085Y296803D01*
X233131Y296828D01*
X233181Y296880D01*
X233237Y296924D01*
X233265Y296968D01*
X233301Y297006D01*
X233331Y297071D01*
X233370Y297131D01*
X233382Y297182D01*
X233404Y297229D01*
X233412Y297300D01*
X233430Y297370D01*
X233426Y297422D01*
X233432Y297473D01*
X233416Y297544D01*
X233411Y297615D01*
X233390Y297663D01*
X233379Y297714D01*
X233342Y297775D01*
X233314Y297841D01*
X233270Y297897D01*
X233253Y297925D01*
X233235Y297940D01*
X233210Y297972D01*
X232357Y298825D01*
X231971Y299757D01*
X231909Y299857D01*
X231849Y299957D01*
X231845Y299961D01*
X231841Y299966D01*
X231751Y300041D01*
X231662Y300117D01*
X231657Y300119D01*
X231652Y300123D01*
X231543Y300165D01*
X231434Y300209D01*
X231427Y300210D01*
X231422Y300211D01*
X231404Y300212D01*
X231268Y300227D01*
X175132Y300227D01*
X175018Y300208D01*
X174901Y300191D01*
X174896Y300189D01*
X174890Y300188D01*
X174787Y300133D01*
X174682Y300080D01*
X174678Y300075D01*
X174672Y300072D01*
X174592Y299988D01*
X174510Y299904D01*
X174506Y299898D01*
X174503Y299894D01*
X174495Y299877D01*
X174429Y299757D01*
X174043Y298825D01*
X171075Y295857D01*
X167198Y294251D01*
X163002Y294251D01*
X159125Y295857D01*
X156157Y298825D01*
X154551Y302702D01*
X154551Y306898D01*
X156157Y310775D01*
X157010Y311628D01*
X157051Y311686D01*
X157101Y311738D01*
X157123Y311785D01*
X157153Y311827D01*
X157174Y311896D01*
X157204Y311961D01*
X157210Y312013D01*
X157225Y312063D01*
X157224Y312134D01*
X157232Y312205D01*
X157220Y312256D01*
X157219Y312308D01*
X157194Y312376D01*
X157179Y312446D01*
X157153Y312491D01*
X157135Y312539D01*
X157090Y312595D01*
X157053Y312657D01*
X157014Y312691D01*
X156981Y312731D01*
X156921Y312770D01*
X156866Y312817D01*
X156818Y312836D01*
X156774Y312864D01*
X156705Y312882D01*
X156638Y312909D01*
X156567Y312917D01*
X156536Y312925D01*
X156512Y312923D01*
X156471Y312927D01*
X137806Y312927D01*
X130861Y319873D01*
X130765Y319941D01*
X130672Y320011D01*
X130666Y320012D01*
X130661Y320016D01*
X130549Y320051D01*
X130438Y320087D01*
X130432Y320087D01*
X130426Y320089D01*
X130309Y320085D01*
X130192Y320084D01*
X130185Y320082D01*
X130180Y320082D01*
X130162Y320076D01*
X130031Y320038D01*
X129098Y319651D01*
X124902Y319651D01*
X121025Y321257D01*
X118057Y324225D01*
X116451Y328102D01*
X116451Y332298D01*
X118057Y336175D01*
X121025Y339143D01*
X124902Y340749D01*
X129098Y340749D01*
X132975Y339143D01*
X135943Y336175D01*
X137549Y332298D01*
X137549Y328102D01*
X137162Y327169D01*
X137136Y327056D01*
X137107Y326942D01*
X137108Y326936D01*
X137106Y326930D01*
X137117Y326813D01*
X137126Y326697D01*
X137129Y326691D01*
X137129Y326685D01*
X137177Y326577D01*
X137223Y326470D01*
X137227Y326465D01*
X137229Y326460D01*
X137242Y326446D01*
X137327Y326339D01*
X141371Y322296D01*
X141445Y322243D01*
X141515Y322183D01*
X141545Y322171D01*
X141571Y322152D01*
X141658Y322125D01*
X141743Y322091D01*
X141784Y322087D01*
X141806Y322080D01*
X141838Y322081D01*
X141909Y322073D01*
X156471Y322073D01*
X156542Y322084D01*
X156614Y322086D01*
X156663Y322104D01*
X156714Y322112D01*
X156777Y322146D01*
X156845Y322171D01*
X156885Y322203D01*
X156931Y322228D01*
X156981Y322280D01*
X157037Y322324D01*
X157065Y322368D01*
X157101Y322406D01*
X157131Y322471D01*
X157170Y322531D01*
X157182Y322582D01*
X157204Y322629D01*
X157212Y322700D01*
X157230Y322770D01*
X157226Y322822D01*
X157232Y322873D01*
X157216Y322944D01*
X157211Y323015D01*
X157190Y323063D01*
X157179Y323114D01*
X157142Y323175D01*
X157114Y323241D01*
X157070Y323297D01*
X157053Y323325D01*
X157035Y323340D01*
X157010Y323372D01*
X156157Y324225D01*
X154551Y328102D01*
X154551Y332298D01*
X156157Y336175D01*
X157010Y337028D01*
X157051Y337086D01*
X157101Y337138D01*
X157123Y337185D01*
X157153Y337227D01*
X157174Y337296D01*
X157204Y337361D01*
X157210Y337413D01*
X157225Y337463D01*
X157224Y337534D01*
X157232Y337605D01*
X157220Y337656D01*
X157219Y337708D01*
X157194Y337776D01*
X157179Y337846D01*
X157153Y337891D01*
X157135Y337939D01*
X157090Y337995D01*
X157053Y338057D01*
X157014Y338091D01*
X156981Y338131D01*
X156921Y338170D01*
X156866Y338217D01*
X156818Y338236D01*
X156774Y338264D01*
X156705Y338282D01*
X156638Y338309D01*
X156567Y338317D01*
X156536Y338325D01*
X156512Y338323D01*
X156471Y338327D01*
X137806Y338327D01*
X134904Y341229D01*
X130861Y345273D01*
X130765Y345341D01*
X130672Y345411D01*
X130666Y345412D01*
X130661Y345416D01*
X130549Y345451D01*
X130438Y345487D01*
X130432Y345487D01*
X130426Y345489D01*
X130309Y345485D01*
X130192Y345484D01*
X130185Y345482D01*
X130180Y345482D01*
X130162Y345476D01*
X130031Y345438D01*
X129098Y345051D01*
X124902Y345051D01*
X121025Y346657D01*
X118057Y349625D01*
X116451Y353502D01*
X116451Y357698D01*
X118057Y361575D01*
X121025Y364543D01*
X124902Y366149D01*
X129098Y366149D01*
X132975Y364543D01*
X135943Y361575D01*
X137549Y357698D01*
X137549Y353502D01*
X137162Y352569D01*
X137136Y352456D01*
X137107Y352342D01*
X137108Y352336D01*
X137106Y352330D01*
X137117Y352213D01*
X137126Y352097D01*
X137129Y352091D01*
X137129Y352085D01*
X137177Y351977D01*
X137223Y351870D01*
X137227Y351865D01*
X137229Y351860D01*
X137242Y351846D01*
X137327Y351739D01*
X141371Y347696D01*
X141445Y347643D01*
X141515Y347583D01*
X141545Y347571D01*
X141571Y347552D01*
X141658Y347525D01*
X141743Y347491D01*
X141784Y347487D01*
X141806Y347480D01*
X141838Y347481D01*
X141909Y347473D01*
X156471Y347473D01*
X156542Y347484D01*
X156614Y347486D01*
X156663Y347504D01*
X156714Y347512D01*
X156777Y347546D01*
X156845Y347571D01*
X156885Y347603D01*
X156931Y347628D01*
X156981Y347680D01*
X157037Y347724D01*
X157065Y347768D01*
X157101Y347806D01*
X157131Y347871D01*
X157170Y347931D01*
X157182Y347982D01*
X157204Y348029D01*
X157212Y348100D01*
X157230Y348170D01*
X157226Y348222D01*
X157232Y348273D01*
X157216Y348344D01*
X157211Y348415D01*
X157190Y348463D01*
X157179Y348514D01*
X157142Y348575D01*
X157114Y348641D01*
X157070Y348697D01*
X157053Y348725D01*
X157035Y348740D01*
X157010Y348772D01*
X156157Y349625D01*
X154551Y353502D01*
X154551Y357698D01*
X156157Y361575D01*
X159125Y364543D01*
X163002Y366149D01*
X167198Y366149D01*
X168131Y365762D01*
X168244Y365736D01*
X168358Y365707D01*
X168364Y365708D01*
X168370Y365706D01*
X168487Y365717D01*
X168603Y365726D01*
X168609Y365729D01*
X168615Y365729D01*
X168723Y365777D01*
X168830Y365823D01*
X168835Y365827D01*
X168840Y365829D01*
X168854Y365842D01*
X168961Y365927D01*
X175906Y372873D01*
X268594Y372873D01*
X275539Y365927D01*
X275633Y365860D01*
X275728Y365789D01*
X275734Y365788D01*
X275739Y365784D01*
X275850Y365750D01*
X275962Y365713D01*
X275968Y365713D01*
X275974Y365712D01*
X276091Y365715D01*
X276208Y365716D01*
X276215Y365718D01*
X276220Y365718D01*
X276238Y365724D01*
X276369Y365762D01*
X277302Y366149D01*
X281498Y366149D01*
X285375Y364543D01*
X288343Y361575D01*
X289949Y357698D01*
X289949Y353502D01*
X288343Y349625D01*
X285375Y346657D01*
X281498Y345051D01*
X277302Y345051D01*
X273425Y346657D01*
X270457Y349625D01*
X268851Y353502D01*
X268851Y357698D01*
X269238Y358631D01*
X269264Y358745D01*
X269293Y358858D01*
X269292Y358864D01*
X269294Y358870D01*
X269283Y358987D01*
X269274Y359103D01*
X269271Y359109D01*
X269271Y359115D01*
X269223Y359223D01*
X269177Y359330D01*
X269173Y359335D01*
X269171Y359340D01*
X269158Y359354D01*
X269073Y359461D01*
X265029Y363504D01*
X264955Y363557D01*
X264885Y363617D01*
X264855Y363629D01*
X264829Y363648D01*
X264742Y363675D01*
X264657Y363709D01*
X264616Y363713D01*
X264594Y363720D01*
X264562Y363719D01*
X264491Y363727D01*
X249929Y363727D01*
X249858Y363716D01*
X249786Y363714D01*
X249737Y363696D01*
X249686Y363688D01*
X249623Y363654D01*
X249555Y363629D01*
X249515Y363597D01*
X249469Y363572D01*
X249419Y363520D01*
X249363Y363476D01*
X249335Y363432D01*
X249299Y363394D01*
X249269Y363329D01*
X249230Y363269D01*
X249218Y363218D01*
X249196Y363171D01*
X249188Y363100D01*
X249170Y363030D01*
X249174Y362978D01*
X249168Y362927D01*
X249184Y362856D01*
X249189Y362785D01*
X249210Y362737D01*
X249221Y362686D01*
X249258Y362625D01*
X249286Y362559D01*
X249330Y362503D01*
X249347Y362475D01*
X249365Y362460D01*
X249390Y362428D01*
X250243Y361575D01*
X251849Y357698D01*
X251849Y353502D01*
X250243Y349625D01*
X249390Y348772D01*
X249349Y348714D01*
X249299Y348662D01*
X249277Y348615D01*
X249247Y348573D01*
X249226Y348504D01*
X249196Y348439D01*
X249190Y348387D01*
X249175Y348337D01*
X249176Y348266D01*
X249168Y348195D01*
X249180Y348144D01*
X249181Y348092D01*
X249206Y348024D01*
X249221Y347954D01*
X249247Y347909D01*
X249265Y347861D01*
X249310Y347805D01*
X249347Y347743D01*
X249386Y347709D01*
X249419Y347669D01*
X249479Y347630D01*
X249534Y347583D01*
X249582Y347564D01*
X249626Y347536D01*
X249695Y347518D01*
X249762Y347491D01*
X249833Y347483D01*
X249864Y347475D01*
X249888Y347477D01*
X249929Y347473D01*
X268594Y347473D01*
X275539Y340527D01*
X275633Y340460D01*
X275728Y340389D01*
X275734Y340388D01*
X275739Y340384D01*
X275850Y340350D01*
X275962Y340313D01*
X275968Y340313D01*
X275974Y340312D01*
X276091Y340315D01*
X276208Y340316D01*
X276215Y340318D01*
X276220Y340318D01*
X276238Y340324D01*
X276369Y340362D01*
X277302Y340749D01*
X281498Y340749D01*
X285375Y339143D01*
X288343Y336175D01*
X289949Y332298D01*
X289949Y328102D01*
X288343Y324225D01*
X285375Y321257D01*
X281498Y319651D01*
X277302Y319651D01*
X273425Y321257D01*
X270457Y324225D01*
X268851Y328102D01*
X268851Y332298D01*
X269238Y333231D01*
X269264Y333345D01*
X269293Y333458D01*
X269292Y333464D01*
X269294Y333470D01*
X269283Y333587D01*
X269274Y333703D01*
X269271Y333709D01*
X269271Y333715D01*
X269223Y333823D01*
X269177Y333930D01*
X269173Y333935D01*
X269171Y333940D01*
X269158Y333954D01*
X269073Y334061D01*
X265029Y338104D01*
X264955Y338157D01*
X264885Y338217D01*
X264855Y338229D01*
X264829Y338248D01*
X264742Y338275D01*
X264657Y338309D01*
X264616Y338313D01*
X264594Y338320D01*
X264562Y338319D01*
X264491Y338327D01*
X249929Y338327D01*
X249858Y338316D01*
X249786Y338314D01*
X249737Y338296D01*
X249686Y338288D01*
X249623Y338254D01*
X249555Y338229D01*
X249515Y338197D01*
X249469Y338172D01*
X249419Y338120D01*
X249363Y338076D01*
X249335Y338032D01*
X249299Y337994D01*
X249269Y337929D01*
X249230Y337869D01*
X249218Y337818D01*
X249196Y337771D01*
X249188Y337700D01*
X249170Y337630D01*
X249174Y337578D01*
X249168Y337527D01*
X249184Y337456D01*
X249189Y337385D01*
X249210Y337337D01*
X249221Y337286D01*
X249258Y337225D01*
X249286Y337159D01*
X249330Y337103D01*
X249347Y337075D01*
X249365Y337060D01*
X249390Y337028D01*
X250243Y336175D01*
X251849Y332298D01*
X251849Y328102D01*
X250243Y324225D01*
X247275Y321257D01*
X243398Y319651D01*
X239202Y319651D01*
X238269Y320038D01*
X238155Y320064D01*
X238042Y320093D01*
X238036Y320092D01*
X238030Y320094D01*
X237913Y320083D01*
X237797Y320074D01*
X237791Y320071D01*
X237785Y320071D01*
X237677Y320023D01*
X237570Y319977D01*
X237565Y319973D01*
X237560Y319971D01*
X237546Y319958D01*
X237439Y319873D01*
X230494Y312927D01*
X173729Y312927D01*
X173658Y312916D01*
X173586Y312914D01*
X173537Y312896D01*
X173486Y312888D01*
X173423Y312854D01*
X173355Y312829D01*
X173315Y312797D01*
X173269Y312772D01*
X173219Y312720D01*
X173163Y312676D01*
X173135Y312632D01*
X173099Y312594D01*
X173069Y312529D01*
X173030Y312469D01*
X173018Y312418D01*
X172996Y312371D01*
X172988Y312300D01*
X172970Y312230D01*
X172974Y312178D01*
X172968Y312127D01*
X172984Y312056D01*
X172989Y311985D01*
X173010Y311937D01*
X173021Y311886D01*
X173058Y311825D01*
X173086Y311759D01*
X173130Y311703D01*
X173147Y311675D01*
X173165Y311660D01*
X173190Y311628D01*
X174043Y310775D01*
X174429Y309843D01*
X174491Y309743D01*
X174551Y309643D01*
X174555Y309639D01*
X174559Y309634D01*
X174649Y309559D01*
X174738Y309483D01*
X174743Y309481D01*
X174748Y309477D01*
X174857Y309435D01*
X174966Y309391D01*
X174973Y309390D01*
X174978Y309389D01*
X174996Y309388D01*
X175132Y309373D01*
X231268Y309373D01*
X231382Y309392D01*
X231499Y309409D01*
X231504Y309411D01*
X231510Y309412D01*
X231613Y309467D01*
X231718Y309520D01*
X231722Y309525D01*
X231728Y309528D01*
X231808Y309612D01*
X231890Y309696D01*
X231894Y309702D01*
X231897Y309706D01*
X231905Y309723D01*
X231971Y309843D01*
X232357Y310775D01*
X235325Y313743D01*
X239202Y315349D01*
X243398Y315349D01*
X247275Y313743D01*
X250243Y310775D01*
X251849Y306898D01*
X251849Y302702D01*
X250243Y298825D01*
X249390Y297972D01*
X249349Y297914D01*
X249299Y297862D01*
X249277Y297815D01*
X249247Y297773D01*
X249226Y297704D01*
X249196Y297639D01*
X249190Y297587D01*
X249175Y297537D01*
X249176Y297466D01*
X249168Y297395D01*
X249180Y297344D01*
X249181Y297292D01*
X249206Y297224D01*
X249221Y297154D01*
X249247Y297109D01*
X249265Y297061D01*
X249310Y297005D01*
X249347Y296943D01*
X249386Y296909D01*
X249419Y296869D01*
X249479Y296830D01*
X249534Y296783D01*
X249582Y296764D01*
X249626Y296736D01*
X249695Y296718D01*
X249762Y296691D01*
X249833Y296683D01*
X249864Y296675D01*
X249888Y296677D01*
X249929Y296673D01*
X268594Y296673D01*
X275539Y289727D01*
X275635Y289659D01*
X275728Y289589D01*
X275734Y289588D01*
X275739Y289584D01*
X275851Y289549D01*
X275962Y289513D01*
X275968Y289513D01*
X275974Y289511D01*
X276091Y289515D01*
X276208Y289516D01*
X276215Y289518D01*
X276220Y289518D01*
X276238Y289524D01*
X276369Y289562D01*
X277302Y289949D01*
X281498Y289949D01*
X285375Y288343D01*
X288343Y285375D01*
X289949Y281498D01*
X289949Y277302D01*
X288343Y273425D01*
X285375Y270457D01*
X281498Y268851D01*
X277302Y268851D01*
X273425Y270457D01*
X270457Y273425D01*
X268851Y277302D01*
X268851Y281498D01*
X269238Y282431D01*
X269246Y282468D01*
X269253Y282483D01*
X269256Y282511D01*
X269264Y282544D01*
X269293Y282658D01*
X269292Y282664D01*
X269294Y282670D01*
X269283Y282787D01*
X269274Y282903D01*
X269271Y282909D01*
X269271Y282915D01*
X269223Y283023D01*
X269177Y283130D01*
X269173Y283135D01*
X269171Y283140D01*
X269158Y283154D01*
X269073Y283261D01*
X265029Y287304D01*
X264955Y287357D01*
X264885Y287417D01*
X264855Y287429D01*
X264829Y287448D01*
X264742Y287475D01*
X264657Y287509D01*
X264616Y287513D01*
X264594Y287520D01*
X264562Y287519D01*
X264491Y287527D01*
X249929Y287527D01*
X249858Y287516D01*
X249786Y287514D01*
X249737Y287496D01*
X249686Y287488D01*
X249623Y287454D01*
X249555Y287429D01*
X249515Y287397D01*
X249469Y287372D01*
X249419Y287320D01*
X249363Y287276D01*
X249335Y287232D01*
X249299Y287194D01*
X249269Y287129D01*
X249230Y287069D01*
X249218Y287018D01*
X249196Y286971D01*
X249188Y286900D01*
X249170Y286830D01*
X249174Y286778D01*
X249168Y286727D01*
X249184Y286656D01*
X249189Y286585D01*
X249210Y286537D01*
X249221Y286486D01*
X249258Y286425D01*
X249286Y286359D01*
X249330Y286303D01*
X249347Y286275D01*
X249365Y286260D01*
X249390Y286228D01*
X250243Y285375D01*
X251849Y281498D01*
X251849Y277302D01*
X250243Y273425D01*
X249390Y272572D01*
X249349Y272514D01*
X249299Y272462D01*
X249277Y272415D01*
X249247Y272373D01*
X249226Y272304D01*
X249196Y272239D01*
X249190Y272187D01*
X249175Y272137D01*
X249176Y272066D01*
X249168Y271995D01*
X249180Y271944D01*
X249181Y271892D01*
X249206Y271824D01*
X249221Y271754D01*
X249247Y271709D01*
X249265Y271661D01*
X249310Y271605D01*
X249347Y271543D01*
X249386Y271509D01*
X249419Y271469D01*
X249479Y271430D01*
X249534Y271383D01*
X249582Y271364D01*
X249626Y271336D01*
X249695Y271318D01*
X249762Y271291D01*
X249833Y271283D01*
X249864Y271275D01*
X249888Y271277D01*
X249929Y271273D01*
X268594Y271273D01*
X275539Y264327D01*
X275635Y264259D01*
X275728Y264189D01*
X275734Y264188D01*
X275739Y264184D01*
X275851Y264149D01*
X275962Y264113D01*
X275968Y264113D01*
X275974Y264111D01*
X276091Y264115D01*
X276208Y264116D01*
X276215Y264118D01*
X276220Y264118D01*
X276238Y264124D01*
X276369Y264162D01*
X277302Y264549D01*
X281498Y264549D01*
X285375Y262943D01*
X288343Y259975D01*
X289949Y256098D01*
X289949Y251902D01*
X288343Y248025D01*
X285375Y245057D01*
X281498Y243451D01*
X277302Y243451D01*
X273425Y245057D01*
X270457Y248025D01*
X268851Y251902D01*
X268851Y256098D01*
X269238Y257031D01*
X269264Y257144D01*
X269293Y257258D01*
X269292Y257264D01*
X269294Y257270D01*
X269283Y257387D01*
X269274Y257503D01*
X269271Y257509D01*
X269271Y257515D01*
X269223Y257623D01*
X269177Y257730D01*
X269173Y257735D01*
X269171Y257740D01*
X269158Y257754D01*
X269073Y257861D01*
X265029Y261904D01*
X264955Y261957D01*
X264885Y262017D01*
X264855Y262029D01*
X264829Y262048D01*
X264742Y262075D01*
X264657Y262109D01*
X264616Y262113D01*
X264594Y262120D01*
X264562Y262119D01*
X264491Y262127D01*
X249929Y262127D01*
X249858Y262116D01*
X249786Y262114D01*
X249737Y262096D01*
X249686Y262088D01*
X249623Y262054D01*
X249555Y262029D01*
X249515Y261997D01*
X249469Y261972D01*
X249419Y261920D01*
X249363Y261876D01*
X249335Y261832D01*
X249299Y261794D01*
X249269Y261729D01*
X249230Y261669D01*
X249218Y261618D01*
X249196Y261571D01*
X249188Y261500D01*
X249170Y261430D01*
X249174Y261378D01*
X249168Y261327D01*
X249184Y261256D01*
X249189Y261185D01*
X249210Y261137D01*
X249221Y261086D01*
X249258Y261025D01*
X249286Y260959D01*
X249330Y260903D01*
X249347Y260875D01*
X249365Y260860D01*
X249390Y260828D01*
X250243Y259975D01*
X251849Y256098D01*
X251849Y251902D01*
X250243Y248025D01*
X247275Y245057D01*
X243398Y243451D01*
X239202Y243451D01*
X238269Y243838D01*
X238156Y243864D01*
X238042Y243893D01*
X238036Y243892D01*
X238030Y243894D01*
X237913Y243883D01*
X237797Y243874D01*
X237791Y243871D01*
X237785Y243871D01*
X237677Y243823D01*
X237570Y243777D01*
X237565Y243773D01*
X237560Y243771D01*
X237546Y243758D01*
X237439Y243673D01*
X233396Y239629D01*
X230494Y236727D01*
X137806Y236727D01*
G37*
%LPD*%
%LPC*%
G36*
X848802Y294251D02*
X848802Y294251D01*
X844925Y295857D01*
X841957Y298825D01*
X840351Y302702D01*
X840351Y306898D01*
X841957Y310775D01*
X842810Y311628D01*
X842851Y311686D01*
X842901Y311738D01*
X842923Y311785D01*
X842953Y311827D01*
X842974Y311896D01*
X843004Y311961D01*
X843010Y312013D01*
X843025Y312063D01*
X843024Y312134D01*
X843032Y312205D01*
X843020Y312256D01*
X843019Y312308D01*
X842994Y312376D01*
X842979Y312446D01*
X842953Y312491D01*
X842935Y312539D01*
X842890Y312595D01*
X842853Y312657D01*
X842814Y312691D01*
X842781Y312731D01*
X842721Y312770D01*
X842666Y312817D01*
X842618Y312836D01*
X842574Y312864D01*
X842505Y312882D01*
X842438Y312909D01*
X842367Y312917D01*
X842336Y312925D01*
X842312Y312923D01*
X842271Y312927D01*
X823606Y312927D01*
X816661Y319873D01*
X816567Y319940D01*
X816472Y320011D01*
X816466Y320012D01*
X816461Y320016D01*
X816350Y320050D01*
X816238Y320087D01*
X816232Y320087D01*
X816226Y320088D01*
X816109Y320085D01*
X815992Y320084D01*
X815985Y320082D01*
X815980Y320082D01*
X815962Y320076D01*
X815831Y320038D01*
X814898Y319651D01*
X810702Y319651D01*
X806825Y321257D01*
X803857Y324225D01*
X802251Y328102D01*
X802251Y332298D01*
X803857Y336175D01*
X806825Y339143D01*
X810702Y340749D01*
X814898Y340749D01*
X818775Y339143D01*
X821743Y336175D01*
X823349Y332298D01*
X823349Y328102D01*
X822962Y327169D01*
X822936Y327055D01*
X822907Y326942D01*
X822908Y326936D01*
X822906Y326930D01*
X822917Y326813D01*
X822926Y326697D01*
X822929Y326691D01*
X822929Y326685D01*
X822977Y326577D01*
X823023Y326470D01*
X823027Y326465D01*
X823029Y326460D01*
X823042Y326446D01*
X823127Y326339D01*
X827171Y322296D01*
X827245Y322243D01*
X827315Y322183D01*
X827345Y322171D01*
X827371Y322152D01*
X827458Y322125D01*
X827543Y322091D01*
X827584Y322087D01*
X827606Y322080D01*
X827638Y322081D01*
X827709Y322073D01*
X842271Y322073D01*
X842342Y322084D01*
X842414Y322086D01*
X842463Y322104D01*
X842514Y322112D01*
X842577Y322146D01*
X842645Y322171D01*
X842685Y322203D01*
X842731Y322228D01*
X842781Y322280D01*
X842837Y322324D01*
X842865Y322368D01*
X842901Y322406D01*
X842931Y322471D01*
X842970Y322531D01*
X842982Y322582D01*
X843004Y322629D01*
X843012Y322700D01*
X843030Y322770D01*
X843026Y322822D01*
X843032Y322873D01*
X843016Y322944D01*
X843011Y323015D01*
X842990Y323063D01*
X842979Y323114D01*
X842942Y323175D01*
X842914Y323241D01*
X842870Y323297D01*
X842853Y323325D01*
X842835Y323340D01*
X842810Y323372D01*
X841957Y324225D01*
X840351Y328102D01*
X840351Y332298D01*
X841957Y336175D01*
X842810Y337028D01*
X842851Y337086D01*
X842901Y337138D01*
X842923Y337185D01*
X842953Y337227D01*
X842974Y337296D01*
X843004Y337361D01*
X843010Y337413D01*
X843025Y337463D01*
X843024Y337534D01*
X843032Y337605D01*
X843020Y337656D01*
X843019Y337708D01*
X842994Y337776D01*
X842979Y337846D01*
X842953Y337891D01*
X842935Y337939D01*
X842890Y337995D01*
X842853Y338057D01*
X842814Y338091D01*
X842781Y338131D01*
X842721Y338170D01*
X842666Y338217D01*
X842618Y338236D01*
X842574Y338264D01*
X842505Y338282D01*
X842438Y338309D01*
X842367Y338317D01*
X842336Y338325D01*
X842312Y338323D01*
X842271Y338327D01*
X823606Y338327D01*
X820704Y341229D01*
X816661Y345273D01*
X816565Y345341D01*
X816472Y345411D01*
X816466Y345412D01*
X816461Y345416D01*
X816349Y345451D01*
X816238Y345487D01*
X816232Y345487D01*
X816226Y345489D01*
X816109Y345485D01*
X815992Y345484D01*
X815985Y345482D01*
X815980Y345482D01*
X815962Y345476D01*
X815831Y345438D01*
X814898Y345051D01*
X810702Y345051D01*
X806825Y346657D01*
X803857Y349625D01*
X802251Y353502D01*
X802251Y357698D01*
X803857Y361575D01*
X806825Y364543D01*
X810702Y366149D01*
X814898Y366149D01*
X818775Y364543D01*
X821743Y361575D01*
X823349Y357698D01*
X823349Y353502D01*
X822962Y352569D01*
X822936Y352456D01*
X822907Y352342D01*
X822908Y352336D01*
X822906Y352330D01*
X822917Y352213D01*
X822926Y352097D01*
X822929Y352091D01*
X822929Y352085D01*
X822977Y351977D01*
X823023Y351870D01*
X823027Y351865D01*
X823029Y351860D01*
X823042Y351846D01*
X823127Y351739D01*
X827171Y347696D01*
X827245Y347643D01*
X827315Y347583D01*
X827345Y347571D01*
X827371Y347552D01*
X827458Y347525D01*
X827543Y347491D01*
X827584Y347487D01*
X827606Y347480D01*
X827638Y347481D01*
X827709Y347473D01*
X842271Y347473D01*
X842342Y347484D01*
X842414Y347486D01*
X842463Y347504D01*
X842514Y347512D01*
X842577Y347546D01*
X842645Y347571D01*
X842685Y347603D01*
X842731Y347628D01*
X842781Y347680D01*
X842837Y347724D01*
X842865Y347768D01*
X842901Y347806D01*
X842931Y347871D01*
X842970Y347931D01*
X842982Y347982D01*
X843004Y348029D01*
X843012Y348100D01*
X843030Y348170D01*
X843026Y348222D01*
X843032Y348273D01*
X843016Y348344D01*
X843011Y348415D01*
X842990Y348463D01*
X842979Y348514D01*
X842942Y348575D01*
X842914Y348641D01*
X842870Y348697D01*
X842853Y348725D01*
X842835Y348740D01*
X842810Y348772D01*
X841957Y349625D01*
X840351Y353502D01*
X840351Y357698D01*
X841957Y361575D01*
X844925Y364543D01*
X848802Y366149D01*
X852998Y366149D01*
X856875Y364543D01*
X859843Y361575D01*
X861449Y357698D01*
X861449Y353502D01*
X859843Y349625D01*
X858990Y348772D01*
X858949Y348714D01*
X858899Y348662D01*
X858877Y348615D01*
X858847Y348573D01*
X858826Y348504D01*
X858796Y348439D01*
X858790Y348387D01*
X858775Y348337D01*
X858776Y348266D01*
X858768Y348195D01*
X858780Y348144D01*
X858781Y348092D01*
X858806Y348024D01*
X858821Y347954D01*
X858847Y347909D01*
X858865Y347861D01*
X858910Y347805D01*
X858947Y347743D01*
X858986Y347709D01*
X859019Y347669D01*
X859079Y347630D01*
X859134Y347583D01*
X859182Y347564D01*
X859226Y347536D01*
X859295Y347518D01*
X859362Y347491D01*
X859433Y347483D01*
X859464Y347475D01*
X859488Y347477D01*
X859529Y347473D01*
X874091Y347473D01*
X874181Y347487D01*
X874272Y347495D01*
X874301Y347507D01*
X874333Y347512D01*
X874414Y347555D01*
X874498Y347591D01*
X874530Y347617D01*
X874551Y347628D01*
X874573Y347651D01*
X874629Y347696D01*
X887106Y360173D01*
X917068Y360173D01*
X917182Y360192D01*
X917299Y360209D01*
X917304Y360211D01*
X917310Y360212D01*
X917413Y360267D01*
X917518Y360320D01*
X917522Y360325D01*
X917528Y360328D01*
X917608Y360412D01*
X917690Y360496D01*
X917694Y360502D01*
X917697Y360506D01*
X917705Y360523D01*
X917771Y360643D01*
X918157Y361575D01*
X921125Y364543D01*
X925002Y366149D01*
X929198Y366149D01*
X933075Y364543D01*
X936043Y361575D01*
X937649Y357698D01*
X937649Y353502D01*
X936043Y349625D01*
X933075Y346657D01*
X929198Y345051D01*
X925002Y345051D01*
X921125Y346657D01*
X918157Y349625D01*
X917771Y350557D01*
X917709Y350657D01*
X917649Y350757D01*
X917645Y350761D01*
X917641Y350766D01*
X917551Y350841D01*
X917462Y350917D01*
X917457Y350919D01*
X917452Y350923D01*
X917343Y350965D01*
X917234Y351009D01*
X917227Y351010D01*
X917222Y351011D01*
X917204Y351012D01*
X917068Y351027D01*
X891209Y351027D01*
X891119Y351013D01*
X891028Y351005D01*
X890999Y350993D01*
X890967Y350988D01*
X890886Y350945D01*
X890802Y350909D01*
X890770Y350883D01*
X890749Y350872D01*
X890727Y350849D01*
X890671Y350804D01*
X878194Y338327D01*
X859529Y338327D01*
X859458Y338316D01*
X859386Y338314D01*
X859337Y338296D01*
X859286Y338288D01*
X859223Y338254D01*
X859155Y338229D01*
X859115Y338197D01*
X859069Y338172D01*
X859019Y338120D01*
X858963Y338076D01*
X858935Y338032D01*
X858899Y337994D01*
X858869Y337929D01*
X858830Y337869D01*
X858818Y337818D01*
X858796Y337771D01*
X858788Y337700D01*
X858770Y337630D01*
X858774Y337578D01*
X858768Y337527D01*
X858784Y337456D01*
X858789Y337385D01*
X858810Y337337D01*
X858821Y337286D01*
X858858Y337225D01*
X858886Y337159D01*
X858930Y337103D01*
X858947Y337075D01*
X858965Y337060D01*
X858990Y337028D01*
X859843Y336175D01*
X861449Y332298D01*
X861449Y328102D01*
X859843Y324225D01*
X858990Y323372D01*
X858949Y323314D01*
X858899Y323262D01*
X858877Y323215D01*
X858847Y323173D01*
X858826Y323104D01*
X858796Y323039D01*
X858790Y322987D01*
X858775Y322937D01*
X858776Y322866D01*
X858768Y322795D01*
X858780Y322744D01*
X858781Y322692D01*
X858806Y322624D01*
X858821Y322554D01*
X858847Y322509D01*
X858865Y322461D01*
X858910Y322405D01*
X858947Y322343D01*
X858986Y322309D01*
X859019Y322269D01*
X859079Y322230D01*
X859134Y322183D01*
X859182Y322164D01*
X859226Y322136D01*
X859295Y322118D01*
X859362Y322091D01*
X859433Y322083D01*
X859464Y322075D01*
X859488Y322077D01*
X859529Y322073D01*
X912191Y322073D01*
X912281Y322087D01*
X912372Y322095D01*
X912401Y322107D01*
X912433Y322112D01*
X912514Y322155D01*
X912598Y322191D01*
X912630Y322217D01*
X912651Y322228D01*
X912673Y322251D01*
X912729Y322296D01*
X916773Y326339D01*
X916820Y326406D01*
X916827Y326413D01*
X916830Y326419D01*
X916841Y326435D01*
X916911Y326528D01*
X916912Y326534D01*
X916916Y326539D01*
X916951Y326651D01*
X916987Y326762D01*
X916987Y326768D01*
X916989Y326774D01*
X916985Y326891D01*
X916984Y327008D01*
X916982Y327015D01*
X916982Y327020D01*
X916976Y327038D01*
X916938Y327169D01*
X916551Y328102D01*
X916551Y332298D01*
X918157Y336175D01*
X921125Y339143D01*
X925002Y340749D01*
X929198Y340749D01*
X933075Y339143D01*
X936043Y336175D01*
X937649Y332298D01*
X937649Y328102D01*
X936043Y324225D01*
X933075Y321257D01*
X929198Y319651D01*
X925002Y319651D01*
X924069Y320038D01*
X923956Y320064D01*
X923842Y320093D01*
X923836Y320092D01*
X923830Y320094D01*
X923713Y320083D01*
X923597Y320074D01*
X923591Y320071D01*
X923585Y320071D01*
X923477Y320023D01*
X923370Y319977D01*
X923365Y319973D01*
X923360Y319971D01*
X923346Y319958D01*
X923239Y319873D01*
X919196Y315829D01*
X916294Y312927D01*
X859529Y312927D01*
X859458Y312916D01*
X859386Y312914D01*
X859337Y312896D01*
X859286Y312888D01*
X859223Y312854D01*
X859155Y312829D01*
X859115Y312797D01*
X859069Y312772D01*
X859019Y312720D01*
X858963Y312676D01*
X858935Y312632D01*
X858899Y312594D01*
X858869Y312529D01*
X858830Y312469D01*
X858818Y312418D01*
X858796Y312371D01*
X858788Y312300D01*
X858770Y312230D01*
X858774Y312178D01*
X858768Y312127D01*
X858784Y312056D01*
X858789Y311985D01*
X858810Y311937D01*
X858821Y311886D01*
X858858Y311825D01*
X858886Y311759D01*
X858930Y311703D01*
X858947Y311675D01*
X858965Y311660D01*
X858990Y311628D01*
X859843Y310775D01*
X860229Y309843D01*
X860291Y309743D01*
X860351Y309643D01*
X860355Y309639D01*
X860359Y309634D01*
X860449Y309559D01*
X860538Y309483D01*
X860543Y309481D01*
X860548Y309477D01*
X860657Y309435D01*
X860766Y309391D01*
X860773Y309390D01*
X860778Y309389D01*
X860796Y309388D01*
X860932Y309373D01*
X917068Y309373D01*
X917182Y309392D01*
X917299Y309409D01*
X917304Y309411D01*
X917310Y309412D01*
X917413Y309467D01*
X917518Y309520D01*
X917522Y309525D01*
X917528Y309528D01*
X917608Y309612D01*
X917690Y309696D01*
X917694Y309702D01*
X917697Y309706D01*
X917705Y309723D01*
X917771Y309843D01*
X918157Y310775D01*
X921125Y313743D01*
X925002Y315349D01*
X929198Y315349D01*
X933075Y313743D01*
X936043Y310775D01*
X937649Y306898D01*
X937649Y302702D01*
X936043Y298825D01*
X933075Y295857D01*
X929198Y294251D01*
X925002Y294251D01*
X921125Y295857D01*
X918157Y298825D01*
X917771Y299757D01*
X917709Y299857D01*
X917649Y299957D01*
X917645Y299961D01*
X917641Y299966D01*
X917551Y300041D01*
X917462Y300117D01*
X917457Y300119D01*
X917452Y300123D01*
X917343Y300165D01*
X917234Y300209D01*
X917227Y300210D01*
X917222Y300211D01*
X917204Y300212D01*
X917068Y300227D01*
X860932Y300227D01*
X860818Y300208D01*
X860701Y300191D01*
X860696Y300189D01*
X860690Y300188D01*
X860587Y300133D01*
X860482Y300080D01*
X860478Y300075D01*
X860472Y300072D01*
X860392Y299988D01*
X860310Y299904D01*
X860306Y299898D01*
X860303Y299894D01*
X860295Y299877D01*
X860229Y299757D01*
X859843Y298825D01*
X856875Y295857D01*
X852998Y294251D01*
X848802Y294251D01*
G37*
%LPD*%
%LPC*%
G36*
X823606Y236727D02*
X823606Y236727D01*
X816661Y243673D01*
X816567Y243740D01*
X816551Y243752D01*
X816548Y243754D01*
X816547Y243754D01*
X816472Y243811D01*
X816466Y243812D01*
X816461Y243816D01*
X816350Y243850D01*
X816238Y243887D01*
X816232Y243887D01*
X816226Y243888D01*
X816109Y243885D01*
X815992Y243884D01*
X815985Y243882D01*
X815980Y243882D01*
X815962Y243876D01*
X815831Y243838D01*
X814898Y243451D01*
X810702Y243451D01*
X806825Y245057D01*
X803857Y248025D01*
X802251Y251902D01*
X802251Y256098D01*
X803857Y259975D01*
X806825Y262943D01*
X810702Y264549D01*
X814898Y264549D01*
X818775Y262943D01*
X821743Y259975D01*
X823349Y256098D01*
X823349Y251902D01*
X822962Y250969D01*
X822954Y250933D01*
X822948Y250921D01*
X822946Y250899D01*
X822936Y250855D01*
X822907Y250742D01*
X822908Y250736D01*
X822906Y250730D01*
X822917Y250613D01*
X822926Y250497D01*
X822929Y250491D01*
X822929Y250485D01*
X822977Y250377D01*
X823023Y250270D01*
X823027Y250265D01*
X823029Y250260D01*
X823042Y250246D01*
X823127Y250139D01*
X827171Y246096D01*
X827245Y246043D01*
X827315Y245983D01*
X827345Y245971D01*
X827371Y245952D01*
X827458Y245925D01*
X827543Y245891D01*
X827584Y245887D01*
X827606Y245880D01*
X827638Y245881D01*
X827709Y245873D01*
X842271Y245873D01*
X842342Y245884D01*
X842414Y245886D01*
X842463Y245904D01*
X842514Y245912D01*
X842577Y245946D01*
X842645Y245971D01*
X842685Y246003D01*
X842731Y246028D01*
X842781Y246080D01*
X842837Y246124D01*
X842865Y246168D01*
X842901Y246206D01*
X842931Y246271D01*
X842970Y246331D01*
X842982Y246382D01*
X843004Y246429D01*
X843012Y246500D01*
X843030Y246570D01*
X843026Y246622D01*
X843032Y246673D01*
X843016Y246744D01*
X843011Y246815D01*
X842990Y246863D01*
X842979Y246914D01*
X842942Y246975D01*
X842914Y247041D01*
X842870Y247097D01*
X842853Y247125D01*
X842835Y247140D01*
X842810Y247172D01*
X841957Y248025D01*
X840351Y251902D01*
X840351Y256098D01*
X841957Y259975D01*
X842810Y260828D01*
X842851Y260886D01*
X842901Y260938D01*
X842923Y260985D01*
X842953Y261027D01*
X842974Y261096D01*
X843004Y261161D01*
X843010Y261213D01*
X843025Y261263D01*
X843024Y261334D01*
X843032Y261405D01*
X843020Y261456D01*
X843019Y261508D01*
X842994Y261576D01*
X842979Y261646D01*
X842953Y261691D01*
X842935Y261739D01*
X842890Y261795D01*
X842853Y261857D01*
X842814Y261891D01*
X842781Y261931D01*
X842721Y261970D01*
X842666Y262017D01*
X842618Y262036D01*
X842574Y262064D01*
X842505Y262082D01*
X842438Y262109D01*
X842367Y262117D01*
X842336Y262125D01*
X842312Y262123D01*
X842271Y262127D01*
X823606Y262127D01*
X816661Y269073D01*
X816567Y269140D01*
X816472Y269211D01*
X816466Y269212D01*
X816461Y269216D01*
X816350Y269250D01*
X816238Y269287D01*
X816232Y269287D01*
X816226Y269288D01*
X816109Y269285D01*
X815992Y269284D01*
X815985Y269282D01*
X815980Y269282D01*
X815962Y269276D01*
X815831Y269238D01*
X814898Y268851D01*
X810702Y268851D01*
X806825Y270457D01*
X803857Y273425D01*
X802251Y277302D01*
X802251Y281498D01*
X803857Y285375D01*
X806825Y288343D01*
X810702Y289949D01*
X814898Y289949D01*
X818775Y288343D01*
X821743Y285375D01*
X823349Y281498D01*
X823349Y277302D01*
X822962Y276369D01*
X822936Y276255D01*
X822907Y276142D01*
X822908Y276136D01*
X822906Y276130D01*
X822917Y276013D01*
X822926Y275897D01*
X822929Y275891D01*
X822929Y275885D01*
X822977Y275777D01*
X823023Y275670D01*
X823027Y275665D01*
X823029Y275660D01*
X823042Y275646D01*
X823127Y275539D01*
X827171Y271496D01*
X827245Y271443D01*
X827315Y271383D01*
X827345Y271371D01*
X827371Y271352D01*
X827458Y271325D01*
X827543Y271291D01*
X827584Y271287D01*
X827606Y271280D01*
X827638Y271281D01*
X827709Y271273D01*
X842271Y271273D01*
X842342Y271284D01*
X842414Y271286D01*
X842463Y271304D01*
X842514Y271312D01*
X842577Y271346D01*
X842645Y271371D01*
X842685Y271403D01*
X842731Y271428D01*
X842781Y271480D01*
X842837Y271524D01*
X842865Y271568D01*
X842901Y271606D01*
X842931Y271671D01*
X842970Y271731D01*
X842982Y271782D01*
X843004Y271829D01*
X843012Y271900D01*
X843030Y271970D01*
X843026Y272022D01*
X843032Y272073D01*
X843016Y272144D01*
X843011Y272215D01*
X842990Y272263D01*
X842979Y272314D01*
X842942Y272375D01*
X842914Y272441D01*
X842870Y272497D01*
X842853Y272525D01*
X842835Y272540D01*
X842810Y272572D01*
X841957Y273425D01*
X840351Y277302D01*
X840351Y281498D01*
X841957Y285375D01*
X844925Y288343D01*
X848802Y289949D01*
X852998Y289949D01*
X856875Y288343D01*
X859843Y285375D01*
X861449Y281498D01*
X861449Y277302D01*
X859843Y273425D01*
X858990Y272572D01*
X858949Y272514D01*
X858899Y272462D01*
X858877Y272415D01*
X858847Y272373D01*
X858826Y272304D01*
X858796Y272239D01*
X858790Y272187D01*
X858775Y272137D01*
X858776Y272066D01*
X858768Y271995D01*
X858780Y271944D01*
X858781Y271892D01*
X858806Y271824D01*
X858821Y271754D01*
X858847Y271709D01*
X858865Y271661D01*
X858910Y271605D01*
X858947Y271543D01*
X858986Y271509D01*
X859019Y271469D01*
X859079Y271430D01*
X859134Y271383D01*
X859182Y271364D01*
X859226Y271336D01*
X859295Y271318D01*
X859362Y271291D01*
X859433Y271283D01*
X859464Y271275D01*
X859488Y271277D01*
X859529Y271273D01*
X886791Y271273D01*
X886881Y271287D01*
X886972Y271295D01*
X887001Y271307D01*
X887033Y271312D01*
X887114Y271355D01*
X887198Y271391D01*
X887230Y271417D01*
X887251Y271428D01*
X887273Y271451D01*
X887329Y271496D01*
X899806Y283973D01*
X917068Y283973D01*
X917182Y283992D01*
X917299Y284009D01*
X917304Y284011D01*
X917310Y284012D01*
X917413Y284067D01*
X917518Y284120D01*
X917522Y284125D01*
X917528Y284128D01*
X917608Y284212D01*
X917690Y284296D01*
X917694Y284302D01*
X917697Y284306D01*
X917705Y284323D01*
X917771Y284443D01*
X918157Y285375D01*
X921125Y288343D01*
X925002Y289949D01*
X929198Y289949D01*
X933075Y288343D01*
X936043Y285375D01*
X937649Y281498D01*
X937649Y277302D01*
X936043Y273425D01*
X933075Y270457D01*
X929198Y268851D01*
X925002Y268851D01*
X921125Y270457D01*
X918157Y273425D01*
X917771Y274357D01*
X917709Y274457D01*
X917649Y274557D01*
X917645Y274561D01*
X917641Y274566D01*
X917551Y274641D01*
X917462Y274717D01*
X917457Y274719D01*
X917452Y274723D01*
X917343Y274765D01*
X917234Y274809D01*
X917227Y274810D01*
X917222Y274811D01*
X917204Y274812D01*
X917068Y274827D01*
X903909Y274827D01*
X903819Y274813D01*
X903728Y274805D01*
X903699Y274793D01*
X903667Y274788D01*
X903586Y274745D01*
X903502Y274709D01*
X903470Y274683D01*
X903449Y274672D01*
X903427Y274649D01*
X903371Y274604D01*
X890894Y262127D01*
X859529Y262127D01*
X859458Y262116D01*
X859386Y262114D01*
X859337Y262096D01*
X859286Y262088D01*
X859223Y262054D01*
X859155Y262029D01*
X859115Y261997D01*
X859069Y261972D01*
X859019Y261920D01*
X858963Y261876D01*
X858935Y261832D01*
X858899Y261794D01*
X858869Y261729D01*
X858830Y261669D01*
X858818Y261618D01*
X858796Y261571D01*
X858788Y261500D01*
X858770Y261430D01*
X858774Y261378D01*
X858768Y261327D01*
X858784Y261256D01*
X858789Y261185D01*
X858810Y261137D01*
X858821Y261086D01*
X858858Y261025D01*
X858886Y260959D01*
X858930Y260903D01*
X858947Y260875D01*
X858965Y260860D01*
X858990Y260828D01*
X859843Y259975D01*
X861449Y256098D01*
X861449Y251902D01*
X859843Y248025D01*
X858990Y247172D01*
X858949Y247114D01*
X858899Y247062D01*
X858877Y247015D01*
X858847Y246973D01*
X858826Y246904D01*
X858796Y246839D01*
X858790Y246787D01*
X858775Y246737D01*
X858776Y246666D01*
X858768Y246595D01*
X858780Y246544D01*
X858781Y246492D01*
X858806Y246424D01*
X858821Y246354D01*
X858847Y246309D01*
X858865Y246261D01*
X858910Y246205D01*
X858947Y246143D01*
X858986Y246109D01*
X859019Y246069D01*
X859079Y246030D01*
X859134Y245983D01*
X859182Y245964D01*
X859226Y245936D01*
X859295Y245918D01*
X859362Y245891D01*
X859433Y245883D01*
X859464Y245875D01*
X859488Y245877D01*
X859529Y245873D01*
X912191Y245873D01*
X912281Y245887D01*
X912372Y245895D01*
X912401Y245907D01*
X912433Y245912D01*
X912514Y245955D01*
X912598Y245991D01*
X912630Y246017D01*
X912651Y246028D01*
X912673Y246051D01*
X912729Y246096D01*
X916773Y250139D01*
X916841Y250234D01*
X916911Y250328D01*
X916912Y250334D01*
X916916Y250339D01*
X916951Y250451D01*
X916987Y250562D01*
X916987Y250568D01*
X916989Y250574D01*
X916985Y250691D01*
X916984Y250808D01*
X916982Y250815D01*
X916982Y250820D01*
X916976Y250838D01*
X916938Y250969D01*
X916551Y251902D01*
X916551Y256098D01*
X918157Y259975D01*
X921125Y262943D01*
X925002Y264549D01*
X929198Y264549D01*
X933075Y262943D01*
X936043Y259975D01*
X937649Y256098D01*
X937649Y251902D01*
X936043Y248025D01*
X933075Y245057D01*
X929198Y243451D01*
X925002Y243451D01*
X924069Y243838D01*
X923956Y243864D01*
X923842Y243893D01*
X923836Y243892D01*
X923830Y243894D01*
X923713Y243883D01*
X923597Y243874D01*
X923591Y243871D01*
X923585Y243871D01*
X923477Y243823D01*
X923370Y243777D01*
X923365Y243773D01*
X923360Y243771D01*
X923346Y243758D01*
X923239Y243673D01*
X919196Y239629D01*
X916294Y236727D01*
X823606Y236727D01*
G37*
%LPD*%
%LPC*%
G36*
X623226Y25319D02*
X623226Y25319D01*
X617023Y31521D01*
X617023Y40293D01*
X623226Y46496D01*
X631998Y46496D01*
X638201Y40293D01*
X638201Y31521D01*
X631998Y25319D01*
X623226Y25319D01*
G37*
%LPD*%
%LPC*%
G36*
X597826Y25319D02*
X597826Y25319D01*
X591623Y31521D01*
X591623Y40293D01*
X597826Y46496D01*
X606598Y46496D01*
X612801Y40293D01*
X612801Y31521D01*
X606598Y25319D01*
X597826Y25319D01*
G37*
%LPD*%
%LPC*%
G36*
X572426Y25319D02*
X572426Y25319D01*
X566223Y31521D01*
X566223Y40293D01*
X572426Y46496D01*
X581198Y46496D01*
X587401Y40293D01*
X587401Y31521D01*
X581198Y25319D01*
X572426Y25319D01*
G37*
%LPD*%
%LPC*%
G36*
X547026Y25319D02*
X547026Y25319D01*
X540823Y31521D01*
X540823Y40293D01*
X547026Y46496D01*
X555798Y46496D01*
X562001Y40293D01*
X562001Y31521D01*
X555798Y25319D01*
X547026Y25319D01*
G37*
%LPD*%
%LPC*%
G36*
X521626Y25319D02*
X521626Y25319D01*
X515423Y31521D01*
X515423Y40293D01*
X521626Y46496D01*
X530398Y46496D01*
X536601Y40293D01*
X536601Y31521D01*
X530398Y25319D01*
X521626Y25319D01*
G37*
%LPD*%
%LPC*%
G36*
X496226Y25319D02*
X496226Y25319D01*
X490023Y31521D01*
X490023Y40293D01*
X496226Y46496D01*
X504998Y46496D01*
X511201Y40293D01*
X511201Y31521D01*
X504998Y25319D01*
X496226Y25319D01*
G37*
%LPD*%
%LPC*%
G36*
X470826Y25319D02*
X470826Y25319D01*
X464623Y31521D01*
X464623Y40293D01*
X470826Y46496D01*
X479598Y46496D01*
X485801Y40293D01*
X485801Y31521D01*
X479598Y25319D01*
X470826Y25319D01*
G37*
%LPD*%
%LPC*%
G36*
X445426Y25319D02*
X445426Y25319D01*
X439223Y31521D01*
X439223Y40293D01*
X445426Y46496D01*
X454198Y46496D01*
X460401Y40293D01*
X460401Y31521D01*
X454198Y25319D01*
X445426Y25319D01*
G37*
%LPD*%
%LPC*%
G36*
X124902Y294251D02*
X124902Y294251D01*
X121025Y295857D01*
X118057Y298825D01*
X116451Y302702D01*
X116451Y306898D01*
X118057Y310775D01*
X121025Y313743D01*
X124902Y315349D01*
X129098Y315349D01*
X132975Y313743D01*
X135943Y310775D01*
X137549Y306898D01*
X137549Y302702D01*
X135943Y298825D01*
X132975Y295857D01*
X129098Y294251D01*
X124902Y294251D01*
G37*
%LPD*%
%LPC*%
G36*
X582102Y294251D02*
X582102Y294251D01*
X578225Y295857D01*
X575257Y298825D01*
X573651Y302702D01*
X573651Y306898D01*
X575257Y310775D01*
X578225Y313743D01*
X582102Y315349D01*
X586298Y315349D01*
X590175Y313743D01*
X593143Y310775D01*
X594749Y306898D01*
X594749Y302702D01*
X593143Y298825D01*
X590175Y295857D01*
X586298Y294251D01*
X582102Y294251D01*
G37*
%LPD*%
%LPC*%
G36*
X277302Y294251D02*
X277302Y294251D01*
X273425Y295857D01*
X270457Y298825D01*
X268851Y302702D01*
X268851Y306898D01*
X270457Y310775D01*
X273425Y313743D01*
X277302Y315349D01*
X281498Y315349D01*
X285375Y313743D01*
X288343Y310775D01*
X289949Y306898D01*
X289949Y302702D01*
X288343Y298825D01*
X285375Y295857D01*
X281498Y294251D01*
X277302Y294251D01*
G37*
%LPD*%
%LPC*%
G36*
X353502Y294251D02*
X353502Y294251D01*
X349625Y295857D01*
X346657Y298825D01*
X345051Y302702D01*
X345051Y306898D01*
X346657Y310775D01*
X349625Y313743D01*
X353502Y315349D01*
X357698Y315349D01*
X361575Y313743D01*
X364543Y310775D01*
X366149Y306898D01*
X366149Y302702D01*
X364543Y298825D01*
X361575Y295857D01*
X357698Y294251D01*
X353502Y294251D01*
G37*
%LPD*%
%LPC*%
G36*
X505902Y294251D02*
X505902Y294251D01*
X502025Y295857D01*
X499057Y298825D01*
X497451Y302702D01*
X497451Y306898D01*
X499057Y310775D01*
X502025Y313743D01*
X505902Y315349D01*
X510098Y315349D01*
X513975Y313743D01*
X516943Y310775D01*
X518549Y306898D01*
X518549Y302702D01*
X516943Y298825D01*
X513975Y295857D01*
X510098Y294251D01*
X505902Y294251D01*
G37*
%LPD*%
%LPC*%
G36*
X734502Y294251D02*
X734502Y294251D01*
X730625Y295857D01*
X727657Y298825D01*
X726051Y302702D01*
X726051Y306898D01*
X727657Y310775D01*
X730625Y313743D01*
X734502Y315349D01*
X738698Y315349D01*
X742575Y313743D01*
X745543Y310775D01*
X747149Y306898D01*
X747149Y302702D01*
X745543Y298825D01*
X742575Y295857D01*
X738698Y294251D01*
X734502Y294251D01*
G37*
%LPD*%
%LPC*%
G36*
X810702Y294251D02*
X810702Y294251D01*
X806825Y295857D01*
X803857Y298825D01*
X802251Y302702D01*
X802251Y306898D01*
X803857Y310775D01*
X806825Y313743D01*
X810702Y315349D01*
X814898Y315349D01*
X818775Y313743D01*
X821743Y310775D01*
X823349Y306898D01*
X823349Y302702D01*
X821743Y298825D01*
X818775Y295857D01*
X814898Y294251D01*
X810702Y294251D01*
G37*
%LPD*%
%LPC*%
G36*
X654535Y37431D02*
X654535Y37431D01*
X654535Y45988D01*
X657188Y45988D01*
X663093Y40083D01*
X663093Y37431D01*
X654535Y37431D01*
G37*
%LPD*%
%LPC*%
G36*
X642931Y37431D02*
X642931Y37431D01*
X642931Y40083D01*
X648836Y45988D01*
X651489Y45988D01*
X651489Y37431D01*
X642931Y37431D01*
G37*
%LPD*%
%LPC*%
G36*
X654535Y25827D02*
X654535Y25827D01*
X654535Y34384D01*
X663093Y34384D01*
X663093Y31732D01*
X657188Y25827D01*
X654535Y25827D01*
G37*
%LPD*%
%LPC*%
G36*
X648836Y25827D02*
X648836Y25827D01*
X642931Y31732D01*
X642931Y34384D01*
X651489Y34384D01*
X651489Y25827D01*
X648836Y25827D01*
G37*
%LPD*%
%LPC*%
G36*
X653011Y35906D02*
X653011Y35906D01*
X653011Y35908D01*
X653013Y35908D01*
X653013Y35906D01*
X653011Y35906D01*
G37*
%LPD*%
D10*
X50800Y355600D03*
X50800Y330200D03*
X50800Y304800D03*
X50800Y279400D03*
X50800Y254000D03*
X127000Y254000D03*
X127000Y279400D03*
X127000Y304800D03*
X127000Y330200D03*
X127000Y355600D03*
X165100Y355600D03*
X165100Y330200D03*
X165100Y304800D03*
X165100Y279400D03*
X165100Y254000D03*
X241300Y254000D03*
X241300Y279400D03*
X241300Y304800D03*
X241300Y330200D03*
X241300Y355600D03*
X279400Y355600D03*
X279400Y330200D03*
X279400Y304800D03*
X279400Y279400D03*
X279400Y254000D03*
X355600Y254000D03*
X355600Y279400D03*
X355600Y304800D03*
X355600Y330200D03*
X355600Y355600D03*
X393700Y355600D03*
X393700Y330200D03*
X393700Y304800D03*
X393700Y279400D03*
X393700Y254000D03*
X469900Y254000D03*
X469900Y279400D03*
X469900Y304800D03*
X469900Y330200D03*
X469900Y355600D03*
X508000Y355600D03*
X508000Y330200D03*
X508000Y304800D03*
X508000Y279400D03*
X508000Y254000D03*
X584200Y254000D03*
X584200Y279400D03*
X584200Y304800D03*
X584200Y330200D03*
X584200Y355600D03*
X622300Y355600D03*
X622300Y330200D03*
X622300Y304800D03*
X622300Y279400D03*
X622300Y254000D03*
X698500Y254000D03*
X698500Y279400D03*
X698500Y304800D03*
X698500Y330200D03*
X698500Y355600D03*
X736600Y355600D03*
X736600Y330200D03*
X736600Y304800D03*
X736600Y279400D03*
X736600Y254000D03*
X812800Y254000D03*
X812800Y279400D03*
X812800Y304800D03*
X812800Y330200D03*
X812800Y355600D03*
X850900Y355600D03*
X850900Y330200D03*
X850900Y304800D03*
X850900Y279400D03*
X850900Y254000D03*
X927100Y254000D03*
X927100Y279400D03*
X927100Y304800D03*
X927100Y330200D03*
X927100Y355600D03*
D11*
X322812Y35907D03*
X348212Y35907D03*
X373612Y35907D03*
X399012Y35907D03*
X424412Y35907D03*
X449812Y35907D03*
X475212Y35907D03*
X500612Y35907D03*
X526012Y35907D03*
X551412Y35907D03*
X576812Y35907D03*
X602212Y35907D03*
X627612Y35907D03*
X653012Y35907D03*
D12*
X419100Y139700D02*
X342900Y139700D01*
X419100Y139700D02*
X424180Y139700D01*
X520700Y139700D01*
X579120Y139700D01*
X673100Y139700D01*
X774700Y139700D01*
X863600Y139700D01*
D13*
X342900Y139700D03*
X419100Y139700D03*
X520700Y139700D03*
X579120Y139700D03*
X675640Y149860D03*
D14*
X675640Y142240D01*
X673100Y139700D01*
D13*
X774700Y139700D03*
X863600Y139700D03*
D12*
X424180Y139700D02*
X424412Y35907D01*
X106680Y554990D02*
X115570Y563880D01*
D13*
X115570Y563880D03*
D12*
X176530Y139700D02*
X342900Y139700D01*
X176530Y139700D02*
X106680Y209550D01*
X106680Y554990D01*
X863600Y139700D02*
X901700Y139700D01*
X914400Y127000D01*
D13*
X914400Y127000D03*
D15*
X139700Y342900D02*
X127000Y355600D01*
X139700Y342900D02*
X190500Y342900D01*
X203200Y355600D01*
X241300Y355600D01*
X355600Y355600D02*
X368300Y342900D01*
X419100Y342900D01*
X431800Y355600D01*
X469900Y355600D01*
X584200Y355600D02*
X596900Y342900D01*
X647700Y342900D01*
X660400Y355600D01*
X698500Y355600D01*
X812800Y355600D02*
X825500Y342900D01*
X876300Y342900D01*
X889000Y355600D01*
X927100Y355600D01*
X139700Y317500D02*
X127000Y330200D01*
X228600Y317500D02*
X241300Y330200D01*
X228600Y317500D02*
X139700Y317500D01*
X355600Y330200D02*
X368300Y317500D01*
X375278Y317500D01*
X457200Y317500D02*
X469900Y330200D01*
X584200Y330200D02*
X596900Y317500D01*
X685800Y317500D01*
X698500Y330200D01*
X812800Y330200D02*
X825500Y317500D01*
X914400Y317500D02*
X927100Y330200D01*
X914400Y317500D02*
X825500Y317500D01*
D13*
X406400Y292100D03*
D15*
X381080Y292728D02*
X375278Y298530D01*
X405772Y292728D02*
X406400Y292100D01*
X405772Y292728D02*
X381080Y292728D01*
X375278Y298530D02*
X375278Y317500D01*
X419100Y317500D01*
X457200Y317500D01*
D16*
X419100Y317500D03*
D15*
X139700Y266700D02*
X127000Y279400D01*
X139700Y266700D02*
X203200Y266700D01*
X215900Y279400D01*
X241300Y279400D01*
X355600Y279400D02*
X368300Y266700D01*
X431800Y266700D01*
X444500Y279400D01*
X469900Y279400D01*
X584200Y279400D02*
X596900Y266700D01*
X660400Y266700D01*
X673100Y279400D01*
X698500Y279400D01*
X812800Y279400D02*
X825500Y266700D01*
X889000Y266700D01*
X901700Y279400D01*
X927100Y279400D01*
X215900Y254000D02*
X165100Y254000D01*
X215900Y254000D02*
X228600Y266700D01*
X266700Y266700D01*
X279400Y254000D01*
X393700Y254000D02*
X444500Y254000D01*
X457200Y266700D01*
X495300Y266700D02*
X508000Y254000D01*
X495300Y266700D02*
X457200Y266700D01*
X622300Y254000D02*
X673100Y254000D01*
X685800Y266700D01*
X723900Y266700D02*
X736600Y254000D01*
X723900Y266700D02*
X685800Y266700D01*
X190500Y279400D02*
X165100Y279400D01*
X190500Y279400D02*
X203200Y292100D01*
X266700Y292100D01*
X279400Y279400D01*
X393700Y279400D02*
X419100Y279400D01*
X431800Y292100D01*
X495300Y292100D02*
X508000Y279400D01*
X495300Y292100D02*
X431800Y292100D01*
X622300Y279400D02*
X647700Y279400D01*
X660400Y292100D01*
X723900Y292100D02*
X736600Y279400D01*
X723900Y292100D02*
X660400Y292100D01*
X203200Y330200D02*
X165100Y330200D01*
X203200Y330200D02*
X215900Y342900D01*
X266700Y342900D01*
X279400Y330200D01*
X393700Y330200D02*
X431800Y330200D01*
X444500Y342900D01*
X495300Y342900D02*
X508000Y330200D01*
X495300Y342900D02*
X444500Y342900D01*
X622300Y330200D02*
X660400Y330200D01*
X673100Y342900D01*
X723900Y342900D02*
X736600Y330200D01*
X723900Y342900D02*
X673100Y342900D01*
X177800Y368300D02*
X165100Y355600D01*
X266700Y368300D02*
X279400Y355600D01*
X266700Y368300D02*
X177800Y368300D01*
X393700Y355600D02*
X406400Y368300D01*
X495300Y368300D02*
X508000Y355600D01*
X495300Y368300D02*
X406400Y368300D01*
X622300Y355600D02*
X635000Y368300D01*
X723900Y368300D01*
X736600Y355600D01*
X139700Y241300D02*
X127000Y254000D01*
X228600Y241300D02*
X241300Y254000D01*
X228600Y241300D02*
X139700Y241300D01*
X355600Y254000D02*
X368300Y241300D01*
X457200Y241300D02*
X469900Y254000D01*
X457200Y241300D02*
X368300Y241300D01*
X584200Y254000D02*
X596900Y241300D01*
X685800Y241300D02*
X698500Y254000D01*
X685800Y241300D02*
X596900Y241300D01*
X812800Y254000D02*
X825500Y241300D01*
X914400Y241300D02*
X927100Y254000D01*
X914400Y241300D02*
X825500Y241300D01*
X241300Y304800D02*
X165100Y304800D01*
X393700Y304800D02*
X469900Y304800D01*
X622300Y304800D02*
X698500Y304800D01*
X850900Y304800D02*
X927100Y304800D01*
X322812Y58188D02*
X322812Y35907D01*
X292100Y88900D02*
X152400Y88900D01*
X292100Y88900D02*
X322812Y58188D01*
X152400Y88900D02*
X66040Y175260D01*
X66040Y378460D01*
X34290Y410210D02*
X34290Y547370D01*
D13*
X34290Y547370D03*
D15*
X34290Y410210D02*
X66040Y378460D01*
X348212Y46758D02*
X348212Y35907D01*
X293370Y101600D02*
X154940Y101600D01*
X293370Y101600D02*
X348212Y46758D01*
X154940Y101600D02*
X74930Y181610D01*
X74930Y384810D01*
X45720Y414020D02*
X45720Y535940D01*
D13*
X45720Y535940D03*
D15*
X45720Y414020D02*
X74930Y384810D01*
X373612Y37868D02*
X373612Y35907D01*
X373612Y37868D02*
X299720Y111760D01*
X161290Y111760D01*
D13*
X55880Y524510D03*
D15*
X82550Y190500D02*
X161290Y111760D01*
X82550Y190500D02*
X82550Y391160D01*
X55880Y417830D01*
X55880Y524510D01*
D17*
X254000Y441960D03*
X196850Y441960D03*
X196850Y416560D03*
X171450Y416560D03*
X171450Y441960D03*
X146050Y441960D03*
X146050Y416560D03*
X254000Y416560D03*
X304800Y441960D03*
X304800Y416560D03*
X304800Y391160D03*
X355600Y441960D03*
X355600Y416560D03*
X406400Y441960D03*
X406400Y416560D03*
X450850Y219710D03*
X492760Y209550D03*
X496570Y172720D03*
X527050Y158750D03*
X457200Y443230D03*
X457200Y415290D03*
X461010Y386080D03*
X508000Y443230D03*
X508000Y424180D03*
X509270Y402590D03*
X638810Y293370D03*
X717550Y223520D03*
X740410Y223520D03*
X764540Y223520D03*
X762000Y185420D03*
X786130Y158750D03*
X558800Y443230D03*
X560070Y416560D03*
X614680Y407670D03*
X659130Y387350D03*
X279400Y508000D03*
X332740Y513080D03*
X368300Y523240D03*
X391160Y510540D03*
X412750Y530860D03*
X435610Y513080D03*
X453390Y539750D03*
X471170Y527050D03*
X485140Y513080D03*
X491490Y548640D03*
X514350Y532130D03*
X537210Y514350D03*
X123190Y233680D03*
X123190Y218440D03*
X121920Y381000D03*
X121920Y396240D03*
X31750Y267970D03*
X30480Y292100D03*
X30480Y317500D03*
X30480Y344170D03*
X944880Y342900D03*
X944880Y317500D03*
X944880Y292100D03*
X946150Y265430D03*
X189230Y600710D03*
X189230Y585470D03*
X181610Y227330D03*
X214630Y218440D03*
X360680Y223520D03*
X402590Y223520D03*
X406400Y187960D03*
X430530Y158750D03*
X289560Y214630D03*
X349250Y160020D03*
X546100Y223520D03*
X581660Y222250D03*
X586740Y168910D03*
X641350Y224790D03*
X671830Y200660D03*
X810260Y214630D03*
X848360Y213360D03*
X876300Y158750D03*
X840740Y119380D03*
X756920Y110490D03*
X685800Y110490D03*
X295910Y292100D03*
X603250Y303530D03*
X831850Y306070D03*
X831850Y355600D03*
X121920Y539750D03*
X121920Y506730D03*
D15*
X379730Y55189D02*
X399012Y35907D01*
X379730Y55189D02*
X379730Y55880D01*
X361950Y73660D01*
X353060Y73660D01*
X306070Y120650D01*
X166370Y120650D02*
X90170Y196850D01*
X90170Y410210D01*
X81280Y419100D01*
D13*
X81280Y419100D03*
D15*
X166370Y120650D02*
X306070Y120650D01*
M02*
