G04 EAGLE Gerber RS-274X export*
G75*
%MOMM*%
%FSLAX34Y34*%
%LPD*%
%INSoldermask Top*%
%IPPOS*%
%AMOC8*
5,1,8,0,0,1.08239X$1,22.5*%
G01*
%ADD10R,4.318000X5.588000*%
%ADD11R,2.235200X0.863600*%
%ADD12C,1.703200*%
%ADD13R,1.203200X1.603200*%
%ADD14R,1.703200X1.503200*%
%ADD15R,0.743200X0.898200*%
%ADD16R,1.503200X1.703200*%
%ADD17P,1.852186X8X22.500000*%
%ADD18C,0.959600*%
%ADD19C,1.009600*%


D10*
X227330Y429260D03*
D11*
X83566Y565150D03*
X145034Y565150D03*
X83566Y552450D03*
X83566Y539750D03*
X145034Y552450D03*
X145034Y539750D03*
X83566Y527050D03*
X145034Y527050D03*
X83566Y514350D03*
X145034Y514350D03*
X83566Y501650D03*
X83566Y488950D03*
X145034Y501650D03*
X145034Y488950D03*
X83566Y476250D03*
X145034Y476250D03*
D12*
X50800Y355600D03*
X50800Y330200D03*
X50800Y304800D03*
X50800Y279400D03*
X50800Y254000D03*
X127000Y254000D03*
X127000Y279400D03*
X127000Y304800D03*
X127000Y330200D03*
X127000Y355600D03*
X165100Y355600D03*
X165100Y330200D03*
X165100Y304800D03*
X165100Y279400D03*
X165100Y254000D03*
X241300Y254000D03*
X241300Y279400D03*
X241300Y304800D03*
X241300Y330200D03*
X241300Y355600D03*
X279400Y355600D03*
X279400Y330200D03*
X279400Y304800D03*
X279400Y279400D03*
X279400Y254000D03*
X355600Y254000D03*
X355600Y279400D03*
X355600Y304800D03*
X355600Y330200D03*
X355600Y355600D03*
X393700Y355600D03*
X393700Y330200D03*
X393700Y304800D03*
X393700Y279400D03*
X393700Y254000D03*
X469900Y254000D03*
X469900Y279400D03*
X469900Y304800D03*
X469900Y330200D03*
X469900Y355600D03*
X508000Y355600D03*
X508000Y330200D03*
X508000Y304800D03*
X508000Y279400D03*
X508000Y254000D03*
X584200Y254000D03*
X584200Y279400D03*
X584200Y304800D03*
X584200Y330200D03*
X584200Y355600D03*
X622300Y355600D03*
X622300Y330200D03*
X622300Y304800D03*
X622300Y279400D03*
X622300Y254000D03*
X698500Y254000D03*
X698500Y279400D03*
X698500Y304800D03*
X698500Y330200D03*
X698500Y355600D03*
X736600Y355600D03*
X736600Y330200D03*
X736600Y304800D03*
X736600Y279400D03*
X736600Y254000D03*
X812800Y254000D03*
X812800Y279400D03*
X812800Y304800D03*
X812800Y330200D03*
X812800Y355600D03*
X850900Y355600D03*
X850900Y330200D03*
X850900Y304800D03*
X850900Y279400D03*
X850900Y254000D03*
X927100Y254000D03*
X927100Y279400D03*
X927100Y304800D03*
X927100Y330200D03*
X927100Y355600D03*
D13*
X288900Y442800D03*
X269900Y442800D03*
X279400Y420800D03*
D14*
X342900Y181000D03*
X342900Y200000D03*
X431800Y181000D03*
X431800Y200000D03*
X520700Y181000D03*
X520700Y200000D03*
X609600Y181000D03*
X609600Y200000D03*
X698500Y181000D03*
X698500Y200000D03*
X787400Y181000D03*
X787400Y200000D03*
X873760Y181000D03*
X873760Y200000D03*
X266700Y181000D03*
X266700Y200000D03*
D13*
X238100Y442800D03*
X219100Y442800D03*
X228600Y420800D03*
X339700Y442800D03*
X320700Y442800D03*
X330200Y420800D03*
X390500Y442800D03*
X371500Y442800D03*
X381000Y420800D03*
X441300Y442800D03*
X422300Y442800D03*
X431800Y420800D03*
X492100Y442800D03*
X473100Y442800D03*
X482600Y420800D03*
X542900Y442800D03*
X523900Y442800D03*
X533400Y420800D03*
X593700Y442800D03*
X574700Y442800D03*
X584200Y420800D03*
D14*
X241300Y492100D03*
X241300Y473100D03*
X292100Y492100D03*
X292100Y473100D03*
X342900Y492100D03*
X342900Y473100D03*
X393700Y492100D03*
X393700Y473100D03*
X444500Y492100D03*
X444500Y473100D03*
X495300Y492100D03*
X495300Y473100D03*
X546100Y492100D03*
X546100Y473100D03*
X596900Y492100D03*
X596900Y473100D03*
X215900Y492100D03*
X215900Y473100D03*
X266700Y492100D03*
X266700Y473100D03*
X317500Y492100D03*
X317500Y473100D03*
X368300Y492100D03*
X368300Y473100D03*
X419100Y492100D03*
X419100Y473100D03*
X469900Y492100D03*
X469900Y473100D03*
X520700Y492100D03*
X520700Y473100D03*
X571500Y492100D03*
X571500Y473100D03*
D15*
X374500Y180780D03*
X387500Y180780D03*
X381000Y200220D03*
X463400Y180780D03*
X476400Y180780D03*
X469900Y200220D03*
X552300Y180780D03*
X565300Y180780D03*
X558800Y200220D03*
X641200Y180780D03*
X654200Y180780D03*
X647700Y200220D03*
X730100Y180780D03*
X743100Y180780D03*
X736600Y200220D03*
X819000Y180780D03*
X832000Y180780D03*
X825500Y200220D03*
X907900Y180780D03*
X920900Y180780D03*
X914400Y200220D03*
X298300Y180780D03*
X311300Y180780D03*
X304800Y200220D03*
D16*
X371500Y152400D03*
X390500Y152400D03*
X460400Y152400D03*
X479400Y152400D03*
X549300Y152400D03*
X568300Y152400D03*
X638200Y152400D03*
X657200Y152400D03*
X727100Y152400D03*
X746100Y152400D03*
X816000Y152400D03*
X835000Y152400D03*
X904900Y152400D03*
X923900Y152400D03*
X295300Y152400D03*
X314300Y152400D03*
D14*
X495300Y98400D03*
X495300Y79400D03*
X520700Y98400D03*
X520700Y79400D03*
X546100Y98400D03*
X546100Y79400D03*
X571500Y98400D03*
X571500Y79400D03*
X596900Y98400D03*
X596900Y79400D03*
X622300Y98400D03*
X622300Y79400D03*
X647700Y98400D03*
X647700Y79400D03*
X469900Y98400D03*
X469900Y79400D03*
D16*
X149250Y594360D03*
X168250Y594360D03*
D17*
X322812Y35907D03*
X348212Y35907D03*
X373612Y35907D03*
X399012Y35907D03*
X424412Y35907D03*
X449812Y35907D03*
X475212Y35907D03*
X500612Y35907D03*
X526012Y35907D03*
X551412Y35907D03*
X576812Y35907D03*
X602212Y35907D03*
X627612Y35907D03*
X653012Y35907D03*
D16*
X422250Y76200D03*
X403250Y76200D03*
X32410Y491490D03*
X51410Y491490D03*
D18*
X342900Y139700D03*
X419100Y139700D03*
X520700Y139700D03*
X579120Y139700D03*
X675640Y149860D03*
X774700Y139700D03*
X863600Y139700D03*
X115570Y563880D03*
X914400Y127000D03*
X406400Y292100D03*
X34290Y547370D03*
X45720Y535940D03*
X55880Y524510D03*
D19*
X254000Y441960D03*
X196850Y441960D03*
X196850Y416560D03*
X171450Y416560D03*
X171450Y441960D03*
X146050Y441960D03*
X146050Y416560D03*
X254000Y416560D03*
X304800Y441960D03*
X304800Y416560D03*
X304800Y391160D03*
X355600Y441960D03*
X355600Y416560D03*
X406400Y441960D03*
X406400Y416560D03*
X450850Y219710D03*
X492760Y209550D03*
X496570Y172720D03*
X527050Y158750D03*
X457200Y443230D03*
X457200Y415290D03*
X461010Y386080D03*
X508000Y443230D03*
X508000Y424180D03*
X509270Y402590D03*
X638810Y293370D03*
X717550Y223520D03*
X740410Y223520D03*
X764540Y223520D03*
X762000Y185420D03*
X786130Y158750D03*
X558800Y443230D03*
X560070Y416560D03*
X614680Y407670D03*
X659130Y387350D03*
X279400Y508000D03*
X332740Y513080D03*
X368300Y523240D03*
X391160Y510540D03*
X412750Y530860D03*
X435610Y513080D03*
X453390Y539750D03*
X471170Y527050D03*
X485140Y513080D03*
X491490Y548640D03*
X514350Y532130D03*
X537210Y514350D03*
X123190Y233680D03*
X123190Y218440D03*
X121920Y381000D03*
X121920Y396240D03*
X31750Y267970D03*
X30480Y292100D03*
X30480Y317500D03*
X30480Y344170D03*
X944880Y342900D03*
X944880Y317500D03*
X944880Y292100D03*
X946150Y265430D03*
X189230Y600710D03*
X189230Y585470D03*
X181610Y227330D03*
X214630Y218440D03*
X360680Y223520D03*
X402590Y223520D03*
X406400Y187960D03*
X430530Y158750D03*
X289560Y214630D03*
X349250Y160020D03*
X546100Y223520D03*
X581660Y222250D03*
X586740Y168910D03*
X641350Y224790D03*
X671830Y200660D03*
X810260Y214630D03*
X848360Y213360D03*
X876300Y158750D03*
X840740Y119380D03*
X756920Y110490D03*
X685800Y110490D03*
X295910Y292100D03*
X603250Y303530D03*
X831850Y306070D03*
X831850Y355600D03*
X121920Y539750D03*
X121920Y506730D03*
D18*
X81280Y419100D03*
M02*
