G04 EAGLE Gerber RS-274X export*
G75*
%MOMM*%
%FSLAX34Y34*%
%LPD*%
%INSoldermask Bottom*%
%IPPOS*%
%AMOC8*
5,1,8,0,0,1.08239X$1,22.5*%
G01*
%ADD10C,1.703200*%
%ADD11P,1.852186X8X22.500000*%
%ADD12C,0.959600*%
%ADD13C,1.009600*%


D10*
X50800Y355600D03*
X50800Y330200D03*
X50800Y304800D03*
X50800Y279400D03*
X50800Y254000D03*
X127000Y254000D03*
X127000Y279400D03*
X127000Y304800D03*
X127000Y330200D03*
X127000Y355600D03*
X165100Y355600D03*
X165100Y330200D03*
X165100Y304800D03*
X165100Y279400D03*
X165100Y254000D03*
X241300Y254000D03*
X241300Y279400D03*
X241300Y304800D03*
X241300Y330200D03*
X241300Y355600D03*
X279400Y355600D03*
X279400Y330200D03*
X279400Y304800D03*
X279400Y279400D03*
X279400Y254000D03*
X355600Y254000D03*
X355600Y279400D03*
X355600Y304800D03*
X355600Y330200D03*
X355600Y355600D03*
X393700Y355600D03*
X393700Y330200D03*
X393700Y304800D03*
X393700Y279400D03*
X393700Y254000D03*
X469900Y254000D03*
X469900Y279400D03*
X469900Y304800D03*
X469900Y330200D03*
X469900Y355600D03*
X508000Y355600D03*
X508000Y330200D03*
X508000Y304800D03*
X508000Y279400D03*
X508000Y254000D03*
X584200Y254000D03*
X584200Y279400D03*
X584200Y304800D03*
X584200Y330200D03*
X584200Y355600D03*
X622300Y355600D03*
X622300Y330200D03*
X622300Y304800D03*
X622300Y279400D03*
X622300Y254000D03*
X698500Y254000D03*
X698500Y279400D03*
X698500Y304800D03*
X698500Y330200D03*
X698500Y355600D03*
X736600Y355600D03*
X736600Y330200D03*
X736600Y304800D03*
X736600Y279400D03*
X736600Y254000D03*
X812800Y254000D03*
X812800Y279400D03*
X812800Y304800D03*
X812800Y330200D03*
X812800Y355600D03*
X850900Y355600D03*
X850900Y330200D03*
X850900Y304800D03*
X850900Y279400D03*
X850900Y254000D03*
X927100Y254000D03*
X927100Y279400D03*
X927100Y304800D03*
X927100Y330200D03*
X927100Y355600D03*
D11*
X322812Y35907D03*
X348212Y35907D03*
X373612Y35907D03*
X399012Y35907D03*
X424412Y35907D03*
X449812Y35907D03*
X475212Y35907D03*
X500612Y35907D03*
X526012Y35907D03*
X551412Y35907D03*
X576812Y35907D03*
X602212Y35907D03*
X627612Y35907D03*
X653012Y35907D03*
D12*
X342900Y139700D03*
X419100Y139700D03*
X520700Y139700D03*
X579120Y139700D03*
X675640Y149860D03*
X774700Y139700D03*
X863600Y139700D03*
X115570Y563880D03*
X914400Y127000D03*
X406400Y292100D03*
X34290Y547370D03*
X45720Y535940D03*
X55880Y524510D03*
D13*
X254000Y441960D03*
X196850Y441960D03*
X196850Y416560D03*
X171450Y416560D03*
X171450Y441960D03*
X146050Y441960D03*
X146050Y416560D03*
X254000Y416560D03*
X304800Y441960D03*
X304800Y416560D03*
X304800Y391160D03*
X355600Y441960D03*
X355600Y416560D03*
X406400Y441960D03*
X406400Y416560D03*
X450850Y219710D03*
X492760Y209550D03*
X496570Y172720D03*
X527050Y158750D03*
X457200Y443230D03*
X457200Y415290D03*
X461010Y386080D03*
X508000Y443230D03*
X508000Y424180D03*
X509270Y402590D03*
X638810Y293370D03*
X717550Y223520D03*
X740410Y223520D03*
X764540Y223520D03*
X762000Y185420D03*
X786130Y158750D03*
X558800Y443230D03*
X560070Y416560D03*
X614680Y407670D03*
X659130Y387350D03*
X279400Y508000D03*
X332740Y513080D03*
X368300Y523240D03*
X391160Y510540D03*
X412750Y530860D03*
X435610Y513080D03*
X453390Y539750D03*
X471170Y527050D03*
X485140Y513080D03*
X491490Y548640D03*
X514350Y532130D03*
X537210Y514350D03*
X123190Y233680D03*
X123190Y218440D03*
X121920Y381000D03*
X121920Y396240D03*
X31750Y267970D03*
X30480Y292100D03*
X30480Y317500D03*
X30480Y344170D03*
X944880Y342900D03*
X944880Y317500D03*
X944880Y292100D03*
X946150Y265430D03*
X189230Y600710D03*
X189230Y585470D03*
X181610Y227330D03*
X214630Y218440D03*
X360680Y223520D03*
X402590Y223520D03*
X406400Y187960D03*
X430530Y158750D03*
X289560Y214630D03*
X349250Y160020D03*
X546100Y223520D03*
X581660Y222250D03*
X586740Y168910D03*
X641350Y224790D03*
X671830Y200660D03*
X810260Y214630D03*
X848360Y213360D03*
X876300Y158750D03*
X840740Y119380D03*
X756920Y110490D03*
X685800Y110490D03*
X295910Y292100D03*
X603250Y303530D03*
X831850Y306070D03*
X831850Y355600D03*
X121920Y539750D03*
X121920Y506730D03*
D12*
X81280Y419100D03*
M02*
